<svg id="그룹_3" data-name="그룹 3" xmlns="http://www.w3.org/2000/svg" xmlns:xlink="http://www.w3.org/1999/xlink" width="240" height="124.019" viewBox="0 0 240 124.019">
  <defs>
    <clipPath id="clip-path">
      <rect id="사각형_9" data-name="사각형 9" width="240" height="124.019" fill="none"/>
    </clipPath>
  </defs>
  <g id="그룹_2" data-name="그룹 2" clip-path="url(#clip-path)">
    <path id="패스_1" data-name="패스 1" d="M39.155,165.5c-2.907,5.84-10.124,10.1-17.759,10.1C8.805,175.6,0,166.758,0,155.02s8.805-20.459,21.4-20.459a19.585,19.585,0,0,1,17.351,9.981h-.005l-.021.016L27.088,154.633v-8.048A9.182,9.182,0,0,0,21.4,144.8c-5.84,0-9.536,4.14-9.536,10.219,0,6.015,3.844,10.33,9.536,10.33a10.6,10.6,0,0,0,9.393-5.7Z" transform="translate(0 -63.314)" fill="#036b57"/>
    <path id="패스_2" data-name="패스 2" d="M77.308,171.3c0-8.717,6.311-14.675,15.527-14.675s15.526,5.958,15.526,14.675-6.31,14.676-15.526,14.676S77.308,180.014,77.308,171.3m15.527,5.284c2.906,0,4.872-2.143,4.872-5.284,0-3.111-1.966-5.253-4.872-5.253s-4.873,2.143-4.873,5.253c0,3.141,1.967,5.284,4.873,5.284" transform="translate(-36.375 -73.694)" fill="#036b57"/>
    <path id="패스_3" data-name="패스 3" d="M161.8,157.209l-.265,2.61c-1.408-1.7-3.611-3.2-7.513-3.2-7.455,0-12.771,6.221-12.771,14.412,0,6.1,3,11.13,7.64,13.258a11.684,11.684,0,0,0,1.318.508,12.281,12.281,0,0,0,3.812.588c3.9,0,6.1-1.175,7.513-2.616v.942c0,2.817-3.14,4.813-6.576,4.813a10.952,10.952,0,0,1-6.565-2.155l-6.836,5.92c1.97,2.2,6.693,5.422,13.756,5.422,8.307,0,17.669-3.992,17.7-13.708v-26.8Zm-4.845,18.727A4.961,4.961,0,1,1,161.889,171a4.686,4.686,0,0,1-4.935,4.935" transform="translate(-66.462 -73.694)" fill="#036b57"/>
    <path id="패스_4" data-name="패스 4" d="M213.849,185.386V157.208h10.273l.264,2.7c1.585-1.937,4.726-3.287,8.747-3.287,5.987,0,10.1,3.992,10.1,9.863v18.9H231.959V169.829a3.42,3.42,0,0,0-6.839,0v15.556Z" transform="translate(-100.622 -73.694)" fill="#036b57"/>
    <path id="패스_5" data-name="패스 5" d="M292.723,157.731v18.415L281.45,185.91V157.731Z" transform="translate(-132.43 -74.217)" fill="#036b57"/>
    <path id="패스_6" data-name="패스 6" d="M317.608,174.878a9.266,9.266,0,0,0,6.868,2.906c1.526,0,2.495-.47,2.495-1.2,0-.91-1.674-1.027-5.4-2.113-4.989-1.439-8.981-3.845-8.981-8.776,0-5.225,4.872-9.07,11.77-9.07,5.665,0,9.3,2.172,11.593,4.873l-5.781,5.929a7.9,7.9,0,0,0-5.4-2.612c-1.437,0-2.319.381-2.319,1.027,0,1,1.82,1.262,5.166,2.319,5.019,1.556,9.421,3.7,9.421,8.483,0,5.636-5.664,9.334-12.473,9.334-6.282,0-10.332-2.084-13.091-5.313Z" transform="translate(-146.557 -73.694)" fill="#036b57"/>
    <path id="패스_7" data-name="패스 7" d="M281.454,142.656V132.9h11.271Z" transform="translate(-132.431 -62.531)" fill="#036b57"/>
    <path id="패스_8" data-name="패스 8" d="M380.373,132.891v31.567L369.1,174.222V132.891Z" transform="translate(-173.671 -62.529)" fill="#036b57"/>
    <path id="패스_9" data-name="패스 9" d="M415.219,177.286c-2.552,0-5.019-1.149-5.342-3.876h11.331l6.693-5.8c-.058-.355-.132-.7-.222-1.043-1.5-6.02-7.169-9.949-13.719-9.949-8.689,0-14.619,6.311-14.619,14.619,0,8.657,6.311,14.735,15.265,14.735,6.836,0,11.622-3.585,13-5.787l-6.55-5.9a7.149,7.149,0,0,1-5.84,3m-1.234-12.448a3.686,3.686,0,0,1,3.849,3.463h-7.958a4.026,4.026,0,0,1,4.109-3.463" transform="translate(-187.9 -73.694)" fill="#036b57"/>
    <path id="패스_10" data-name="패스 10" d="M235.835,57.937H69.874L92.659,31.63A15.124,15.124,0,0,1,113.992,30.1l9.329,8.079L151.854,5.225a15.124,15.124,0,0,1,21.334-1.534Z" transform="translate(-32.878 0)" fill="#036b57"/>
    <path id="패스_11" data-name="패스 11" d="M240.965,76.3l-7.586-6.571L225.79,76.3l-9.359-8.1,3.5-4.042,5.861,5.073,7.592-6.57,7.584,6.569,11.221-9.713,3.5,4.042Z" transform="translate(-101.836 -28.001)" fill="#fff9bd"/>
    <path id="패스_12" data-name="패스 12" d="M235.99,45.551a5.732,5.732,0,1,1-5.732-5.732,5.732,5.732,0,0,1,5.732,5.732" transform="translate(-105.645 -18.736)" fill="#fff9bd"/>
    <path id="패스_13" data-name="패스 13" d="M261.37,45.551a5.732,5.732,0,1,1-5.732-5.732,5.732,5.732,0,0,1,5.732,5.732" transform="translate(-117.587 -18.736)" fill="#fff9bd"/>
  </g>
</svg>
