<svg xmlns="http://www.w3.org/2000/svg" viewBox="0 0 240 124.019"><defs><clipPath id="a"><path d="M0 0h240v124.019H0z" fill="none"/></clipPath><path d="M130.345 26.815a5.732 5.732 0 1 1-11.463 0 5.732 5.732 0 0 1 11.463 0" id="b"/></defs><g clip-path="url(#a)"><path d="M39.155 102.186c-2.907 5.84-10.124 10.1-17.759 10.1C8.805 112.286 0 103.444 0 91.706s8.805-20.459 21.4-20.459a19.584 19.584 0 0 1 17.351 9.981h-.005l-.021.016-11.637 10.075v-8.048a9.18 9.18 0 0 0-5.688-1.785c-5.84 0-9.536 4.14-9.536 10.219 0 6.015 3.844 10.33 9.536 10.33a10.6 10.6 0 0 0 9.393-5.7zm1.778-4.58c0-8.717 6.311-14.675 15.527-14.675s15.526 5.958 15.526 14.675-6.31 14.676-15.526 14.676-15.527-5.962-15.527-14.676m15.527 5.284c2.906 0 4.872-2.143 4.872-5.284 0-3.11-1.966-5.253-4.872-5.253s-4.873 2.143-4.873 5.253c0 3.141 1.967 5.284 4.873 5.284m38.878-19.375-.265 2.61c-1.408-1.7-3.61-3.2-7.513-3.2-7.455 0-12.771 6.221-12.771 14.412 0 6.1 3 11.13 7.64 13.258a11.75 11.75 0 0 0 1.318.508 12.28 12.28 0 0 0 3.812.588c3.9.003 6.1-1.172 7.513-2.613v.942c0 2.817-3.14 4.813-6.576 4.813a10.95 10.95 0 0 1-6.565-2.155l-6.836 5.92c1.97 2.2 6.693 5.422 13.756 5.422 8.307 0 17.67-3.992 17.7-13.708v-26.8zm-4.845 18.727a4.96 4.96 0 1 1 4.934-4.936 4.69 4.69 0 0 1-1.365 3.57 4.684 4.684 0 0 1-3.57 1.365m22.735 9.451V83.514H123.5l.264 2.7c1.585-1.937 4.726-3.287 8.747-3.287 5.987 0 10.1 3.992 10.1 9.863v18.9h-11.274V96.135a3.42 3.42 0 0 0-6.839 0v15.556zm47.066-28.178v18.415l-11.273 9.764v-28.18zm10.758 17.67a9.265 9.265 0 0 0 6.868 2.906c1.526 0 2.495-.47 2.495-1.2 0-.91-1.674-1.027-5.4-2.113-4.989-1.439-8.981-3.845-8.981-8.776 0-5.225 4.872-9.07 11.77-9.07 5.665 0 9.3 2.172 11.593 4.873l-5.78 5.93a7.9 7.9 0 0 0-5.401-2.613c-1.437 0-2.319.381-2.319 1.027 0 1 1.82 1.262 5.166 2.32 5.019 1.555 9.421 3.7 9.421 8.482 0 5.636-5.664 9.334-12.473 9.334-6.282 0-10.332-2.084-13.091-5.313zm-22.028-21.059V70.37h11.271zm57.68-9.763v31.567l-11.274 9.764V70.362zm20.616 33.23c-2.555 0-5.02-1.149-5.345-3.876h11.331l6.693-5.8-.223-1.043c-1.5-6.02-7.169-9.949-13.719-9.949-8.689 0-14.619 6.311-14.619 14.619 0 8.657 6.311 14.735 15.265 14.735 6.836 0 11.622-3.585 13-5.787l-6.55-5.9a7.15 7.15 0 0 1-5.84 3m-1.234-12.448a3.686 3.686 0 0 1 3.85 3.463h-7.957a4.027 4.027 0 0 1 4.109-3.463m-23.125-33.206H36.997L59.78 31.63c5.469-6.313 15.019-6.998 21.333-1.53l9.329 8.079 28.533-32.954a15.124 15.124 0 0 1 21.334-1.534z" fill="#036b57"/><g fill="#fff9bd"><path d="m139.129 48.299-7.586-6.571-7.59 6.571-9.358-8.1 3.5-4.042 5.86 5.073 7.593-6.57 7.584 6.569 11.22-9.713 3.5 4.042z"/><use href="#b"/><path d="M143.783 26.815a5.732 5.732 0 1 1-11.463 0 5.732 5.732 0 0 1 11.463 0"/></g></g></svg>