<svg xmlns="http://www.w3.org/2000/svg" viewBox="0 0 184.96 32"><defs><clipPath id="a"><path d="M0 0h184.96v32H0z" fill="#036b57"/></clipPath><path d="M13.412 7.526a4.88 4.88 0 1 1-9.762 0 4.88 4.88 0 1 1 9.762 0" id="b"/></defs><g fill="#036b57" clip-path="url(#a)"><path d="M65.179 18.977C63.445 22.46 59.141 25 54.588 25c-7.509 0-12.76-5.27-12.76-12.272s5.251-12.2 12.76-12.2A11.68 11.68 0 0 1 64.936 6.48l-.013.009-6.937 6.005v-4.8a5.474 5.474 0 0 0-3.395-1.064c-3.48 0-5.683 2.47-5.683 6.094 0 3.587 2.292 6.161 5.687 6.161a6.32 6.32 0 0 0 5.6-3.4zm1.06-2.732c0-5.2 3.764-8.752 9.26-8.752s9.26 3.553 9.26 8.752-3.767 8.752-9.26 8.752-9.26-3.553-9.26-8.752m9.26 3.15a2.88 2.88 0 0 0 2.901-3.15 2.91 2.91 0 0 0-1.385-2.708 2.915 2.915 0 0 0-4.427 2.708 2.884 2.884 0 0 0 .751 2.223 2.88 2.88 0 0 0 2.155.928m23.19-11.552L98.527 9.4a5.4 5.4 0 0 0-4.481-1.907c-4.446 0-7.616 3.71-7.616 8.6 0 3.638 1.787 6.637 4.557 7.907a6.91 6.91 0 0 0 .786.3 7.313 7.313 0 0 0 2.274.351 5.85 5.85 0 0 0 4.481-1.56v.562c0 1.68-1.872 2.87-3.922 2.87a6.53 6.53 0 0 1-3.916-1.285l-4.075 3.524a11.13 11.13 0 0 0 8.2 3.233c4.954 0 10.537-2.38 10.556-8.175V7.847zm-2.89 11.169a2.96 2.96 0 1 1 2.943-2.943 2.796 2.796 0 0 1-.814 2.129 2.79 2.79 0 0 1-2.129.814m13.558 5.635V7.843h6.126l.158 1.61a6.7 6.7 0 0 1 5.216-1.961 5.66 5.66 0 0 1 6.021 5.882v11.274h-6.722V15.37a2.04 2.04 0 0 0-2.039-2.039 2.04 2.04 0 0 0-2.039 2.039v9.278zm28.07-16.804v10.982L130.7 24.65V7.844zm6.419 10.537a5.524 5.524 0 0 0 4.1 1.733c.91 0 1.488-.28 1.488-.718 0-.542-1-.613-3.22-1.26-2.975-.858-5.356-2.293-5.356-5.234 0-3.116 2.906-5.409 7.02-5.409a8.59 8.59 0 0 1 6.913 2.906l-3.449 3.532a4.71 4.71 0 0 0-3.22-1.558c-.858 0-1.384.227-1.384.613 0 .6 1.086.753 3.08 1.383 2.994.929 5.62 2.207 5.62 5.06 0 3.36-3.378 5.567-7.44 5.567-3.745 0-6.16-1.243-7.806-3.17zm-13.14-12.56V-.002h6.72zM165.1 0v18.826l-6.723 5.823V0zm12.296 19.817c-1.522 0-2.993-.685-3.186-2.311h6.758l3.991-3.458-.133-.622a8.156 8.156 0 0 0-8.182-5.933 8.414 8.414 0 0 0-6.26 2.458 8.41 8.41 0 0 0-2.458 6.26c0 5.163 3.764 8.788 9.1 8.788 4.077 0 6.931-2.138 7.755-3.451l-3.906-3.518a4.264 4.264 0 0 1-3.483 1.787m-.736-7.424a2.2 2.2 0 0 1 2.3 2.065h-4.746a2.4 2.4 0 0 1 2.45-2.065M20.892 25.816l-6.46-5.6-6.462 5.6L0 18.917l2.979-3.442 4.991 4.32 6.464-5.594 6.457 5.594 9.555-8.271 2.979 3.442z"/><use href="#b"/><path d="M24.854 7.526a4.88 4.88 0 1 1-9.762 0 4.88 4.88 0 1 1 9.762 0"/></g></svg>