<svg id="그룹_40" data-name="그룹 40" xmlns="http://www.w3.org/2000/svg" xmlns:xlink="http://www.w3.org/1999/xlink" width="184.96" height="32" viewBox="0 0 184.96 32">
  <defs>
    <clipPath id="clip-path">
      <rect id="사각형_28" data-name="사각형 28" width="184.96" height="32" fill="#036b57"/>
    </clipPath>
  </defs>
  <g id="그룹_38" data-name="그룹 38" clip-path="url(#clip-path)">
    <path id="패스_53" data-name="패스 53" d="M155.816,20.12c-1.734,3.483-6.038,6.022-10.591,6.022-7.509,0-12.76-5.27-12.76-12.271s5.251-12.2,12.76-12.2a11.68,11.68,0,0,1,10.348,5.952h0l-.013.009-6.937,6.009v-4.8a5.476,5.476,0,0,0-3.395-1.064c-3.483,0-5.687,2.469-5.687,6.094,0,3.587,2.292,6.161,5.687,6.161a6.319,6.319,0,0,0,5.6-3.4Z" transform="translate(-90.637 -1.143)" fill="#036b57"/>
    <path id="패스_54" data-name="패스 54" d="M209.772,32.482c0-5.2,3.764-8.752,9.26-8.752s9.26,3.553,9.26,8.752-3.763,8.752-9.26,8.752-9.26-3.553-9.26-8.752m9.26,3.151a2.882,2.882,0,0,0,2.905-3.151,2.914,2.914,0,1,0-5.811,0,2.883,2.883,0,0,0,2.906,3.151" transform="translate(-143.533 -16.237)" fill="#036b57"/>
    <path id="패스_55" data-name="패스 55" d="M285.97,24.081l-.158,1.557a5.4,5.4,0,0,0-4.481-1.907c-4.446,0-7.616,3.71-7.616,8.6,0,3.638,1.787,6.637,4.557,7.907a6.965,6.965,0,0,0,.786.3,7.324,7.324,0,0,0,2.274.351,5.849,5.849,0,0,0,4.481-1.56v.562c0,1.68-1.872,2.87-3.922,2.87a6.532,6.532,0,0,1-3.916-1.285L273.9,45a11.127,11.127,0,0,0,8.2,3.233c4.954,0,10.537-2.381,10.556-8.175V24.081Zm-2.889,11.169a2.959,2.959,0,1,1,2.943-2.943,2.794,2.794,0,0,1-2.943,2.943" transform="translate(-187.284 -16.237)" fill="#036b57"/>
    <path id="패스_56" data-name="패스 56" d="M346.313,40.885V24.08h6.126l.158,1.61a6.7,6.7,0,0,1,5.216-1.961,5.661,5.661,0,0,1,6.021,5.882V40.885h-6.722V31.607a2.039,2.039,0,0,0-4.078,0v9.278Z" transform="translate(-236.958 -16.237)" fill="#036b57"/>
    <path id="패스_57" data-name="패스 57" d="M420.637,24.84V35.822l-6.723,5.823V24.84Z" transform="translate(-283.213 -16.996)" fill="#036b57"/>
    <path id="패스_58" data-name="패스 58" d="M447.6,34.618a5.526,5.526,0,0,0,4.1,1.733c.91,0,1.488-.28,1.488-.718,0-.542-1-.613-3.221-1.26-2.975-.858-5.356-2.293-5.356-5.234,0-3.116,2.906-5.409,7.019-5.409a8.591,8.591,0,0,1,6.914,2.906l-3.448,3.536a4.711,4.711,0,0,0-3.222-1.558c-.857,0-1.383.227-1.383.613,0,.6,1.086.753,3.081,1.383,2.993.928,5.619,2.206,5.619,5.059,0,3.361-3.378,5.567-7.439,5.567-3.746,0-6.162-1.243-7.807-3.169Z" transform="translate(-303.756 -16.237)" fill="#036b57"/>
    <path id="패스_59" data-name="패스 59" d="M413.919,5.825V0h6.722Z" transform="translate(-283.216 -0.003)" fill="#036b57"/>
    <path id="패스_60" data-name="패스 60" d="M508.287,0V18.826l-6.723,5.823V0Z" transform="translate(-343.186)" fill="#036b57"/>
    <path id="패스_61" data-name="패스 61" d="M541.274,36.054c-1.522,0-2.993-.685-3.186-2.311h6.757l3.991-3.458c-.035-.212-.079-.42-.133-.622a8.156,8.156,0,0,0-8.182-5.933,8.413,8.413,0,0,0-8.718,8.718c0,5.163,3.764,8.788,9.1,8.788,4.077,0,6.931-2.138,7.755-3.451l-3.906-3.518a4.264,4.264,0,0,1-3.483,1.787m-.736-7.424a2.2,2.2,0,0,1,2.3,2.065h-4.746a2.4,2.4,0,0,1,2.45-2.065" transform="translate(-363.877 -16.237)" fill="#036b57"/>
    <path id="패스_62" data-name="패스 62" d="M20.892,50.785l-6.459-5.6L7.97,50.785,0,43.886l2.979-3.442,4.991,4.32,6.464-5.594,6.457,5.594,9.555-8.271,2.979,3.442Z" transform="translate(0 -24.969)" fill="#036b57"/>
    <path id="패스_63" data-name="패스 63" d="M21.32,13.256a4.881,4.881,0,1,1-4.881-4.881,4.881,4.881,0,0,1,4.881,4.881" transform="translate(-7.908 -5.73)" fill="#036b57"/>
    <path id="패스_64" data-name="패스 64" d="M57.558,13.256a4.881,4.881,0,1,1-4.881-4.881,4.881,4.881,0,0,1,4.881,4.881" transform="translate(-32.704 -5.73)" fill="#036b57"/>
  </g>
</svg>
