<svg xmlns="http://www.w3.org/2000/svg" id="그룹_111" width="280" height="380.65" viewBox="0 0 280 380.65"><defs><clipPath id="clip-path"><path id="사각형_103" fill="none" d="M0 0h280v380.65H0z"/></clipPath></defs><path id="패스_111" fill="#fff9bd" d="M61.021 58.75v.109l.133-.109z" transform="translate(102.542 98.726)"/><g id="그룹_110"><g id="그룹_109" clip-path="url(#clip-path)"><path id="패스_112" fill="#fff9bd" d="M235.746 97.054V58.75l-72.182 62.508v-62.4l-44.123 38.2V58.75L65.323 105.6V58.75L.027 115.307V58.75H0v223.174h280V58.75zm-97.539 48.6a19.983 19.983 0 1 1-20 19.969 19.984 19.984 0 0 1 20-19.969m-46.857 0a19.983 19.983 0 1 1-19.97 19.966 19.991 19.991 0 0 1 19.97-19.97m50.607 94.861l-26.429-22.918-26.454 22.918-32.65-28.252 12.2-14.1 20.455 17.691 26.453-22.891 26.429 22.891L181.065 182l12.2 14.1z" transform="translate(0 98.727)"/><path id="패스_113" fill="#036b57" d="M157.888 118.829l-51.307 44.415-26.426-22.918L53.7 163.244l-32.649-28.252 12.2-14.1L53.7 138.584l26.456-22.891 26.427 22.891 39.108-33.854z" transform="translate(35.375 175.994)"/><path id="패스_114" fill="#036b57" d="M61.154 58.75l-.134.107v-.107z" transform="translate(102.542 98.727)"/><path id="패스_115" fill="#036b57" d="M61.154 58.75l-.134.107v-.107z" transform="translate(102.542 98.727)"/><path id="패스_116" fill="#036b57" d="M235.729 142.9v-38.3l-72.185 62.5v-62.4l.134-.107h-.134v.107l-44.12 38.2v-38.3l-54.118 46.847v-46.854L.01 161.15v-56.557l65-73.123a494.313 494.313 0 0 0 74.972 5.683 495.187 495.187 0 0 0 75-5.683l65 73.123z" transform="translate(.017 52.884)"/><path id="패스_117" fill="#036b57" d="M154.913 71.005a487.656 487.656 0 0 1-126.223 0L91.788 0z" transform="translate(48.212)"/><path id="패스_118" fill="#036b57" d="M174.231 39.839a495.178 495.178 0 0 1-75 5.683 494.321 494.321 0 0 1-74.971-5.683L36.134 26.49a487.655 487.655 0 0 0 126.222 0l.161.188z" transform="translate(40.768 44.515)"/><path id="패스_119" fill="#036b57" d="M66.6 111.139a19.983 19.983 0 1 1-20-19.969 20 20 0 0 1 20 19.969" transform="translate(44.75 153.207)"/><path id="패스_120" fill="#036b57" d="M84.066 111.139A19.983 19.983 0 1 1 64.1 91.17a19.99 19.99 0 0 1 19.967 19.969" transform="translate(74.108 153.207)"/><path id="패스_121" fill="#fff9bd" d="M174.256 39.839h-.027a495.152 495.152 0 0 1-75 5.683 494.286 494.286 0 0 1-74.972-5.683L36.135 26.49a487.655 487.655 0 0 0 126.222 0l.158.188z" transform="translate(40.769 44.515)"/></g></g></svg>