<svg id="그룹_111" data-name="그룹 111" xmlns="http://www.w3.org/2000/svg" xmlns:xlink="http://www.w3.org/1999/xlink" width="280" height="380.651" viewBox="0 0 280 380.651">
  <defs>
    <clipPath id="clip-path">
      <rect id="사각형_103" data-name="사각형 103" width="280" height="380.651" fill="none"/>
    </clipPath>
  </defs>
  <path id="패스_111" data-name="패스 111" d="M61.021,58.75v.109l.133-.109Z" transform="translate(102.542 98.726)" fill="#fff9bd"/>
  <g id="그룹_110" data-name="그룹 110">
    <g id="그룹_109" data-name="그룹 109" clip-path="url(#clip-path)">
      <path id="패스_112" data-name="패스 112" d="M235.746,97.054V58.75l-72.182,62.508v-62.4l-44.123,38.2V58.75L65.323,105.6V58.75L.027,115.307V58.75H0V281.924H280V58.75Zm-97.539,48.6a19.983,19.983,0,1,1-20,19.969,19.984,19.984,0,0,1,20-19.969m-46.857,0A19.983,19.983,0,1,1,71.38,165.62,19.991,19.991,0,0,1,91.35,145.65m50.607,94.861-26.429-22.918L89.074,240.511,56.424,212.259l12.2-14.1,20.455,17.691,26.453-22.891,26.429,22.891L181.065,182l12.2,14.1Z" transform="translate(0 98.727)" fill="#fff9bd"/>
      <path id="패스_113" data-name="패스 113" d="M157.888,118.829l-51.307,44.415L80.155,140.326,53.7,163.244,21.051,134.992l12.2-14.1L53.7,138.584l26.456-22.891,26.427,22.891,39.108-33.854Z" transform="translate(35.375 175.994)" fill="#036b57"/>
      <path id="패스_114" data-name="패스 114" d="M61.154,58.75l-.134.107V58.75Z" transform="translate(102.542 98.727)" fill="#036b57"/>
      <path id="패스_115" data-name="패스 115" d="M61.154,58.75l-.134.107V58.75Z" transform="translate(102.542 98.727)" fill="#036b57"/>
      <path id="패스_116" data-name="패스 116" d="M235.729,142.9v-38.3L163.544,167.1V104.7l.134-.107h-.134v.107l-44.12,38.2v-38.3L65.306,151.447V104.593L.01,161.15V104.593l65-73.123a494.313,494.313,0,0,0,74.972,5.683,495.187,495.187,0,0,0,75-5.683l65,73.123Z" transform="translate(0.017 52.884)" fill="#036b57"/>
      <path id="패스_117" data-name="패스 117" d="M154.913,71.005a487.656,487.656,0,0,1-126.223,0L91.788,0Z" transform="translate(48.212)" fill="#036b57"/>
      <path id="패스_118" data-name="패스 118" d="M174.231,39.839a495.178,495.178,0,0,1-75,5.683A494.321,494.321,0,0,1,24.26,39.839L36.134,26.49a487.655,487.655,0,0,0,126.222,0l.161.188Z" transform="translate(40.768 44.515)" fill="#036b57"/>
      <path id="패스_119" data-name="패스 119" d="M66.6,111.139a19.983,19.983,0,1,1-20-19.969,20,20,0,0,1,20,19.969" transform="translate(44.75 153.207)" fill="#036b57"/>
      <path id="패스_120" data-name="패스 120" d="M84.066,111.139A19.983,19.983,0,1,1,64.1,91.17a19.99,19.99,0,0,1,19.967,19.969" transform="translate(74.108 153.207)" fill="#036b57"/>
      <path id="패스_121" data-name="패스 121" d="M174.256,39.839h-.027a495.152,495.152,0,0,1-75,5.683,494.286,494.286,0,0,1-74.972-5.683L36.135,26.49a487.655,487.655,0,0,0,126.222,0l.158.188Z" transform="translate(40.769 44.515)" fill="#fff9bd"/>
    </g>
  </g>
</svg>
