<svg xmlns="http://www.w3.org/2000/svg"><symbol id="friend" viewBox="0 0 280 380.65"><defs><clipPath id="clip-path"><path id="사각형_103" fill="none" d="M0 0h280v380.65H0z"/></clipPath></defs><path id="패스_111" fill="#fff9bd" d="M61.021 58.75v.109l.133-.109z" transform="translate(102.542 98.726)"/><g id="그룹_110"><g id="그룹_109" clip-path="url(#clip-path)"><path id="패스_112" fill="#fff9bd" d="M235.746 97.054V58.75l-72.182 62.508v-62.4l-44.123 38.2V58.75L65.323 105.6V58.75L.027 115.307V58.75H0v223.174h280V58.75zm-97.539 48.6a19.983 19.983 0 1 1-20 19.969 19.984 19.984 0 0 1 20-19.969m-46.857 0a19.983 19.983 0 1 1-19.97 19.966 19.991 19.991 0 0 1 19.97-19.97m50.607 94.861l-26.429-22.918-26.454 22.918-32.65-28.252 12.2-14.1 20.455 17.691 26.453-22.891 26.429 22.891L181.065 182l12.2 14.1z" transform="translate(0 98.727)"/><path id="패스_113" fill="#036b57" d="M157.888 118.829l-51.307 44.415-26.426-22.918L53.7 163.244l-32.649-28.252 12.2-14.1L53.7 138.584l26.456-22.891 26.427 22.891 39.108-33.854z" transform="translate(35.375 175.994)"/><path id="패스_114" fill="#036b57" d="M61.154 58.75l-.134.107v-.107z" transform="translate(102.542 98.727)"/><path id="패스_115" fill="#036b57" d="M61.154 58.75l-.134.107v-.107z" transform="translate(102.542 98.727)"/><path id="패스_116" fill="#036b57" d="M235.729 142.9v-38.3l-72.185 62.5v-62.4l.134-.107h-.134v.107l-44.12 38.2v-38.3l-54.118 46.847v-46.854L.01 161.15v-56.557l65-73.123a494.313 494.313 0 0 0 74.972 5.683 495.187 495.187 0 0 0 75-5.683l65 73.123z" transform="translate(.017 52.884)"/><path id="패스_117" fill="#036b57" d="M154.913 71.005a487.656 487.656 0 0 1-126.223 0L91.788 0z" transform="translate(48.212)"/><path id="패스_118" fill="#036b57" d="M174.231 39.839a495.178 495.178 0 0 1-75 5.683 494.321 494.321 0 0 1-74.971-5.683L36.134 26.49a487.655 487.655 0 0 0 126.222 0l.161.188z" transform="translate(40.768 44.515)"/><path id="패스_119" fill="#036b57" d="M66.6 111.139a19.983 19.983 0 1 1-20-19.969 20 20 0 0 1 20 19.969" transform="translate(44.75 153.207)"/><path id="패스_120" fill="#036b57" d="M84.066 111.139A19.983 19.983 0 1 1 64.1 91.17a19.99 19.99 0 0 1 19.967 19.969" transform="translate(74.108 153.207)"/><path id="패스_121" fill="#fff9bd" d="M174.256 39.839h-.027a495.152 495.152 0 0 1-75 5.683 494.286 494.286 0 0 1-74.972-5.683L36.135 26.49a487.655 487.655 0 0 0 126.222 0l.158.188z" transform="translate(40.769 44.515)"/></g></g></symbol><symbol id="loading" viewBox="0 0 240 245.04"><defs><clipPath id="clip-path"><path id="사각형_74" fill="none" d="M0 0h240v245.04H0z"/></clipPath></defs><path id="패스_78" fill="#036b57" d="M80.7 163.3l-1.4 1.4H60.045v-1.4z" transform="translate(-.17 -.423)"/><path id="패스_79" fill="#036b57" d="M86.745 157.25l-1.4 1.4h-25.3v-1.4z" transform="translate(-.174 -.408)"/><path id="패스_80" fill="#036b57" d="M92.8 151.2l-1.39 1.39H60.045v-1.39z" transform="translate(-.18 -.392)"/><g id="그룹_60"><g id="그룹_59" clip-path="url(#clip-path)"><path id="패스_81" fill="#036b57" d="M206.388 40.669l-39.972 39.972V59.5l-16.8 14.563V59.5h-.53l-3.422 3.422-23.486 20.337V59.54l.05-.041h-.05v.041l-16.764 14.523V59.5L84.863 77.3V59.5L60.045 81V59.5l24.7-27.772a187.809 187.809 0 0 0 28.485 2.159 188.169 188.169 0 0 0 28.5-2.159l16.528 18.6 28.892-28.896a13.641 13.641 0 0 1 9.237-3.982c.143 0 .285-.01.418-.01a13.607 13.607 0 0 1 9.583 23.229" transform="translate(1.104 .321)"/><path id="패스_82" fill="#036b57" d="M148.066 58.74l-3.951 3.422 3.422-3.422z" transform="translate(2.65 1.08)"/><path id="패스_83" fill="#fff9bd" d="M121.106 58.74l-.051.041v-.041z" transform="translate(2.226 1.08)"/><path id="패스_84" fill="#fff9bd" d="M149.613 73.3V58.74l-3.951 3.422L122.178 82.5V58.781L105.414 73.3V58.74l-20.551 17.8v-17.8l-24.818 21.5v-21.5h-.01v88.712h106.381V58.74zm-37.07 18.466a7.587 7.587 0 1 1-7.007 10.52 7.4 7.4 0 0 1-.591-2.933 7.589 7.589 0 0 1 7.6-7.587m-17.8 0a7.587 7.587 0 1 1-7.587 7.587 7.589 7.589 0 0 1 7.587-7.587m19.224 36.034l-10.041-8.7-10.05 8.7-7.425-6.426-4.98-4.308 4.634-5.347 5.367 4.634 2.4 2.088 10.05-8.707 10.041 8.707 14.858-12.872 4.634 5.357z" transform="translate(1.104 1.08)"/><path id="패스_85" fill="#fff9bd" d="M148.066 58.74l-3.951 3.422 3.422-3.422z" transform="translate(2.65 1.08)"/><path id="패스_86" fill="#036b57" d="M133.074 110.077l-19.492 16.875-10.041-8.7-10.052 8.7-7.424-6.426-4.98-4.308 4.634-5.347 5.367 4.634 2.4 2.088 10.052-8.707 10.041 8.707 14.861-12.873z" transform="translate(1.491 1.926)"/><path id="패스_87" fill="#036b57" d="M121.106 58.74l-.051.041v-.041z" transform="translate(2.226 1.08)"/><path id="패스_88" fill="#036b57" d="M121.106 58.74l-.051.041v-.041z" transform="translate(2.226 1.08)"/><path id="패스_89" fill="#036b57" d="M60.371 145.85l-.336.336v-.336z" transform="translate(1.104 2.682)"/><path id="사각형_68" fill="#036b57" d="M0 0h106.37v1.43H0z" transform="translate(61.149 166.303)"/><path id="사각형_69" fill="#036b57" d="M0 0h106.37v1.43H0z" transform="translate(61.149 160.142)"/><path id="사각형_70" fill="#036b57" d="M0 0h106.37v1.42H0z" transform="translate(61.149 153.981)"/><path id="패스_90" fill="#036b57" d="M136.762 26.977a186.1 186.1 0 0 1-47.946 0L84.3 32.049 112.79 0z" transform="translate(1.55)"/><path id="패스_91" fill="#036b57" d="M141.284 31.562a188.171 188.171 0 0 1-28.5 2.159A187.805 187.805 0 0 1 84.3 31.562l4.522-5.072a186.1 186.1 0 0 0 47.946 0l3.422 3.839z" transform="translate(1.55 .487)"/><path id="패스_92" fill="#036b57" d="M148.066 58.74l-3.951 3.422 3.422-3.422z" transform="translate(2.65 1.08)"/><path id="패스_93" fill="#036b57" d="M101.849 98.757a7.592 7.592 0 1 1-7.6-7.587 7.589 7.589 0 0 1 7.6 7.587" transform="translate(1.594 1.677)"/><path id="패스_94" fill="#036b57" d="M119.319 98.757a7.593 7.593 0 0 1-14.594 2.933 7.4 7.4 0 0 1-.591-2.933 7.592 7.592 0 1 1 15.184 0" transform="translate(1.915 1.677)"/><path id="사각형_71" fill="#73d89c" d="M0 0h106.37v1.42H0z" transform="translate(61.149 153.981)"/><path id="사각형_72" fill="#73d89c" d="M0 0h106.37v1.43H0z" transform="translate(61.149 160.142)"/><path id="사각형_73" fill="#73d89c" d="M0 0h106.37v1.43H0z" transform="translate(61.149 166.303)"/><path id="패스_95" fill="#fff9bd" d="M141.284 31.562a188.171 188.171 0 0 1-28.5 2.159A187.805 187.805 0 0 1 84.3 31.562l4.522-5.072a186.1 186.1 0 0 0 47.946 0l3.422 3.839z" transform="translate(1.55 .487)"/><path id="패스_96" fill="#036b57" d="M236.893 193.521l-30.5 30.5a75.081 75.081 0 0 1-14.94 11.589l-18.5-16.029-19.726 22.781-17.313-14.991-9-7.791-5.428 6.273-9.386 10.817-10.734-9.3-23.647-20.48-2.319-2.004-3.646 4.206-1.976 2.281L51 233.055l-13.895-12.048-7.21 8.32a75.737 75.737 0 0 1-16.814-19.095l-11.5-18.626a10.554 10.554 0 0 1 8.972-16.091H32.6a13.693 13.693 0 0 1 2.342-3.137l26.193-26.193.336-.336H167.52v5.451H61.149v1.416H167.52v4.746H61.149v1.426H167.52v4.736H61.149v1.426H167.52a35.738 35.738 0 0 1-1.568 10.469h63.476a10.55 10.55 0 0 1 7.465 18.005" transform="translate(0 2.682)"/></g></g></symbol></svg>