<svg id="그룹_61" data-name="그룹 61" xmlns="http://www.w3.org/2000/svg" xmlns:xlink="http://www.w3.org/1999/xlink" width="240" height="245.045" viewBox="0 0 240 245.045">
  <defs>
    <clipPath id="clip-path">
      <rect id="사각형_74" data-name="사각형 74" width="240" height="245.045" fill="none"/>
    </clipPath>
  </defs>
  <path id="패스_78" data-name="패스 78" d="M80.7,163.3l-1.4,1.4H60.045v-1.4Z" transform="translate(-0.17 -0.423)" fill="#036b57"/>
  <path id="패스_79" data-name="패스 79" d="M86.745,157.25l-1.4,1.4h-25.3v-1.4Z" transform="translate(-0.174 -0.408)" fill="#036b57"/>
  <path id="패스_80" data-name="패스 80" d="M92.8,151.2l-1.39,1.39H60.045V151.2Z" transform="translate(-0.18 -0.392)" fill="#036b57"/>
  <g id="그룹_60" data-name="그룹 60">
    <g id="그룹_59" data-name="그룹 59" clip-path="url(#clip-path)">
      <path id="패스_81" data-name="패스 81" d="M206.388,40.669,166.416,80.641V59.5l-16.8,14.563V59.5h-.53l-3.422,3.422L122.178,83.259V59.54l.05-.041h-.05v.041L105.414,74.063V59.5L84.863,77.3V59.5L60.045,81V59.5l24.7-27.772a187.809,187.809,0,0,0,28.485,2.159,188.169,188.169,0,0,0,28.5-2.159l16.528,18.6L187.15,21.432a13.641,13.641,0,0,1,9.237-3.982c.143,0,.285-.01.418-.01a13.607,13.607,0,0,1,9.583,23.229" transform="translate(1.104 0.321)" fill="#036b57"/>
      <path id="패스_82" data-name="패스 82" d="M148.066,58.74l-3.951,3.422,3.422-3.422Z" transform="translate(2.65 1.08)" fill="#036b57"/>
      <path id="패스_83" data-name="패스 83" d="M121.106,58.74l-.051.041V58.74Z" transform="translate(2.226 1.08)" fill="#fff9bd"/>
      <path id="패스_84" data-name="패스 84" d="M149.613,73.3V58.74l-3.951,3.422L122.178,82.5V58.781L105.414,73.3V58.74l-20.551,17.8V58.74l-24.818,21.5V58.74h-.01v88.712H166.416V58.74ZM112.543,91.766a7.587,7.587,0,1,1-7.007,10.52,7.4,7.4,0,0,1-.591-2.933,7.589,7.589,0,0,1,7.6-7.587m-17.8,0a7.587,7.587,0,1,1-7.587,7.587,7.589,7.589,0,0,1,7.587-7.587M113.969,127.8l-10.041-8.7-10.05,8.7-7.425-6.426-4.98-4.308,4.634-5.347,5.367,4.634,2.4,2.088,10.05-8.707,10.041,8.707,14.858-12.872,4.634,5.357Z" transform="translate(1.104 1.08)" fill="#fff9bd"/>
      <path id="패스_85" data-name="패스 85" d="M148.066,58.74l-3.951,3.422,3.422-3.422Z" transform="translate(2.65 1.08)" fill="#fff9bd"/>
      <path id="패스_86" data-name="패스 86" d="M133.074,110.077l-19.492,16.875-10.041-8.7-10.052,8.7-7.424-6.426-4.98-4.308,4.634-5.347,5.367,4.634,2.4,2.088,10.052-8.707,10.041,8.707L128.44,104.72Z" transform="translate(1.491 1.926)" fill="#036b57"/>
      <path id="패스_87" data-name="패스 87" d="M121.106,58.74l-.051.041V58.74Z" transform="translate(2.226 1.08)" fill="#036b57"/>
      <path id="패스_88" data-name="패스 88" d="M121.106,58.74l-.051.041V58.74Z" transform="translate(2.226 1.08)" fill="#036b57"/>
      <path id="패스_89" data-name="패스 89" d="M60.371,145.85l-.336.336v-.336Z" transform="translate(1.104 2.682)" fill="#036b57"/>
      <rect id="사각형_68" data-name="사각형 68" width="106.371" height="1.426" transform="translate(61.149 166.303)" fill="#036b57"/>
      <rect id="사각형_69" data-name="사각형 69" width="106.371" height="1.426" transform="translate(61.149 160.142)" fill="#036b57"/>
      <rect id="사각형_70" data-name="사각형 70" width="106.371" height="1.416" transform="translate(61.149 153.981)" fill="#036b57"/>
      <path id="패스_90" data-name="패스 90" d="M136.762,26.977a186.1,186.1,0,0,1-47.946,0L84.3,32.049,112.79,0Z" transform="translate(1.55)" fill="#036b57"/>
      <path id="패스_91" data-name="패스 91" d="M141.284,31.562a188.171,188.171,0,0,1-28.5,2.159A187.805,187.805,0,0,1,84.3,31.562l4.522-5.072a186.1,186.1,0,0,0,47.946,0l3.422,3.839Z" transform="translate(1.55 0.487)" fill="#036b57"/>
      <path id="패스_92" data-name="패스 92" d="M148.066,58.74l-3.951,3.422,3.422-3.422Z" transform="translate(2.65 1.08)" fill="#036b57"/>
      <path id="패스_93" data-name="패스 93" d="M101.849,98.757a7.592,7.592,0,1,1-7.6-7.587,7.589,7.589,0,0,1,7.6,7.587" transform="translate(1.594 1.677)" fill="#036b57"/>
      <path id="패스_94" data-name="패스 94" d="M119.319,98.757a7.593,7.593,0,0,1-14.594,2.933,7.4,7.4,0,0,1-.591-2.933,7.592,7.592,0,1,1,15.184,0" transform="translate(1.915 1.677)" fill="#036b57"/>
      <rect id="사각형_71" data-name="사각형 71" width="106.371" height="1.416" transform="translate(61.149 153.981)" fill="#73d89c"/>
      <rect id="사각형_72" data-name="사각형 72" width="106.371" height="1.426" transform="translate(61.149 160.142)" fill="#73d89c"/>
      <rect id="사각형_73" data-name="사각형 73" width="106.371" height="1.426" transform="translate(61.149 166.303)" fill="#73d89c"/>
      <path id="패스_95" data-name="패스 95" d="M141.284,31.562a188.171,188.171,0,0,1-28.5,2.159A187.805,187.805,0,0,1,84.3,31.562l4.522-5.072a186.1,186.1,0,0,0,47.946,0l3.422,3.839Z" transform="translate(1.55 0.487)" fill="#fff9bd"/>
      <path id="패스_96" data-name="패스 96" d="M236.893,193.521l-30.5,30.5a75.081,75.081,0,0,1-14.94,11.589l-18.5-16.029-19.726,22.781-17.313-14.991-9-7.791-5.428,6.273L112.1,236.67l-10.734-9.3-23.647-20.48L75.4,204.886l-3.646,4.206-1.976,2.281L51,233.055,37.105,221.007l-7.21,8.32a75.737,75.737,0,0,1-16.814-19.095l-11.5-18.626a10.554,10.554,0,0,1,8.972-16.091H32.6a13.693,13.693,0,0,1,2.342-3.137l26.193-26.193.336-.336H167.52V151.3H61.149v1.416H167.52v4.746H61.149v1.426H167.52v4.736H61.149v1.426H167.52a35.738,35.738,0,0,1-1.568,10.469h63.476a10.55,10.55,0,0,1,7.465,18.005" transform="translate(0 2.682)" fill="#036b57"/>
    </g>
  </g>
</svg>
