<svg id="그룹_56" data-name="그룹 56" xmlns="http://www.w3.org/2000/svg" xmlns:xlink="http://www.w3.org/1999/xlink" width="60.406" height="130.629" viewBox="0 0 60.406 130.629">
  <defs>
    <clipPath id="clip-path">
      <rect id="사각형_67" data-name="사각형 67" width="60.406" height="130.629" fill="#ffc361"/>
    </clipPath>
  </defs>
  <rect id="사각형_63" data-name="사각형 63" width="60.404" height="50.369" transform="translate(0.002 33.968)" fill="#fff9bd"/>
  <path id="패스_70" data-name="패스 70" d="M39.506,117.347l-5.7-4.941-5.707,4.941-7.039-6.093,2.631-3.039,4.408,3.815,5.707-4.941,5.7,4.941,8.437-7.3,2.631,3.039Z" transform="translate(-8.88 -44.167)" fill="#ffc361"/>
  <path id="패스_71" data-name="패스 71" d="M61.02,58.74v.023l.029-.023Z" transform="translate(-25.735 -24.773)" fill="#036b57"/>
  <path id="패스_72" data-name="패스 72" d="M61.02,58.74v.023l.029-.023Z" transform="translate(-25.735 -24.773)" fill="#036b57"/>
  <g id="그룹_55" data-name="그룹 55">
    <g id="그룹_54" data-name="그룹 54" clip-path="url(#clip-path)">
      <path id="패스_73" data-name="패스 73" d="M42.878,177.093v4.244a27.788,27.788,0,0,1,6.91-.85c.364,0,.723.012,1.081.017,7.541.283,7.228,11.635-.317,11.635H37.35a5.955,5.955,0,0,1-5.956-5.956v-7.7q-1.187.026-2.377,0v7.7a5.955,5.955,0,0,1-5.956,5.956H9.854c-7.541,0-7.859-11.351-.312-11.635.353-.006.717-.017,1.081-.017a27.742,27.742,0,0,1,6.9.85v-4.244q-1.44-.321-2.874-.723A20.3,20.3,0,0,1,0,156.756V145.85H60.406v10.894a20.511,20.511,0,0,1-15.249,19.788c-.758.2-1.515.387-2.278.561" transform="translate(0 -61.511)" fill="#ffc361"/>
      <path id="패스_74" data-name="패스 74" d="M50.868,42.236V33.967L35.29,47.458V33.99l.029-.023H35.29v.023l-9.518,8.246V33.967L14.1,44.075V33.967L.01,46.174V33.967L30.213,0l30.2,33.967Z" transform="translate(-0.004)" fill="#ffc361"/>
      <path id="패스_75" data-name="패스 75" d="M35.252,95.477a4.31,4.31,0,1,1-4.31-4.31,4.31,4.31,0,0,1,4.31,4.31" transform="translate(-11.231 -38.449)" fill="#ffc361"/>
      <path id="패스_76" data-name="패스 76" d="M52.727,95.477a4.31,4.31,0,1,1-4.31-4.31,4.31,4.31,0,0,1,4.31,4.31" transform="translate(-18.601 -38.449)" fill="#ffc361"/>
      <rect id="사각형_64" data-name="사각형 64" width="60.4" height="0.807" transform="translate(0.005 87.432)" fill="#69bfff"/>
      <rect id="사각형_65" data-name="사각형 65" width="60.4" height="0.807" transform="translate(0.005 90.933)" fill="#69bfff"/>
      <rect id="사각형_66" data-name="사각형 66" width="60.4" height="0.807" transform="translate(0.005 94.433)" fill="#69bfff"/>
      <path id="패스_77" data-name="패스 77" d="M56.621,29.367a106.621,106.621,0,0,1-16.184,1.226,106.434,106.434,0,0,1-16.176-1.226l2.566-2.88a105.344,105.344,0,0,0,27.229,0Z" transform="translate(-10.232 -11.171)" fill="#fff9bd"/>
    </g>
  </g>
</svg>
