<svg xmlns="http://www.w3.org/2000/svg" width="601" height="849" viewBox="0 0 601 849">
  <g id="그룹_108" data-name="그룹 108" transform="translate(120 -36)">
    <circle id="타원_27" data-name="타원 27" cx="64" cy="64" r="64" transform="translate(353 282)" fill="#fff9bd" opacity="0.2"/>
    <circle id="타원_29" data-name="타원 29" cx="120" cy="120" r="120" transform="translate(-120 575)" fill="#fff9bd" opacity="0.2"/>
    <circle id="타원_28" data-name="타원 28" cx="28" cy="28" r="28" transform="translate(97 245)" fill="#fff9bd" opacity="0.2"/>
    <circle id="타원_38" data-name="타원 38" cx="8" cy="8" r="8" transform="translate(306 116)" fill="#fff9bd" opacity="0.2"/>
    <circle id="타원_37" data-name="타원 37" cx="18" cy="18" r="18" transform="translate(236 660)" fill="#fff9bd" opacity="0.2"/>
    <g id="타원_33" data-name="타원 33" transform="translate(325 170)" fill="none" stroke="#fff9be" stroke-width="5" opacity="0.2">
      <circle cx="28" cy="28" r="28" stroke="none"/>
      <circle cx="28" cy="28" r="25.5" fill="none"/>
    </g>
    <g id="타원_34" data-name="타원 34" transform="translate(29 725)" fill="none" stroke="#fff9be" stroke-width="5" opacity="0.2">
      <circle cx="80" cy="80" r="80" stroke="none"/>
      <circle cx="80" cy="80" r="77.5" fill="none"/>
    </g>
    <g id="타원_35" data-name="타원 35" transform="translate(26 36)" fill="none" stroke="#fff9be" stroke-width="5" opacity="0.2">
      <circle cx="48" cy="48" r="48" stroke="none"/>
      <circle cx="48" cy="48" r="45.5" fill="none"/>
    </g>
    <g id="타원_36" data-name="타원 36" transform="translate(314 714)" fill="none" stroke="#fff9be" stroke-width="5" opacity="0.2">
      <circle cx="10" cy="10" r="10" stroke="none"/>
      <circle cx="10" cy="10" r="7.5" fill="none"/>
    </g>
    <circle id="타원_30" data-name="타원 30" cx="6" cy="6" r="6" transform="translate(248 158)" fill="#fff9bd" opacity="0.2"/>
    <circle id="타원_31" data-name="타원 31" cx="12" cy="12" r="12" transform="translate(46 386)" fill="#fff9bd" opacity="0.2"/>
    <circle id="타원_32" data-name="타원 32" cx="6" cy="6" r="6" transform="translate(353 594)" fill="#fff9bd" opacity="0.2"/>
  </g>
</svg>
