<?xml version="1.0" encoding="UTF-8"?>
<svg version="1.1" xmlns="http://www.w3.org/2000/svg" width="761" height="765">
<path d="M0 0 C3.00874098 1.33803458 4.98385643 2.77584376 7.20703125 5.1953125 C8.08161987 6.1395105 8.08161987 6.1395105 8.97387695 7.1027832 C9.88399536 8.10378052 9.88399536 8.10378052 10.8125 9.125 C11.44051514 9.80715576 12.06853027 10.48931152 12.71557617 11.19213867 C16.31944595 15.11830956 19.88542192 19.07475945 23.36328125 23.11328125 C25.37873772 25.43658787 27.43848462 27.71748465 29.5 30 C32.76390848 33.61676345 35.98790949 37.26389608 39.1875 40.9375 C41.27211164 43.30964429 43.38428644 45.65556065 45.5 48 C48.76390848 51.61676345 51.98790949 55.26389608 55.1875 58.9375 C57.27211164 61.30964429 59.38428644 63.65556065 61.5 66 C64.76390848 69.61676345 67.98790949 73.26389608 71.1875 76.9375 C73.27211164 79.30964429 75.38428644 81.65556065 77.5 84 C80.76390848 87.61676345 83.98790949 91.26389608 87.1875 94.9375 C89.27211164 97.30964429 91.38428644 99.65556065 93.5 102 C96.76390848 105.61676345 99.98790949 109.26389608 103.1875 112.9375 C105.27211164 115.30964429 107.38428644 117.65556065 109.5 120 C112.76390848 123.61676345 115.98790949 127.26389608 119.1875 130.9375 C121.27211164 133.30964429 123.38428644 135.65556065 125.5 138 C128.76390848 141.61676345 131.98790949 145.26389608 135.1875 148.9375 C137.27211164 151.30964429 139.38428644 153.65556065 141.5 156 C145.37522146 160.29701427 149.23132925 164.60897995 153 169 C153.84772571 169.85083223 154.69545141 170.70166447 155.56886578 171.5782795 C158.75558841 175.43737397 158.68919076 178.8814229 158.60127258 183.73190308 C158.60554471 184.59865917 158.60981683 185.46541527 158.61421841 186.3584367 C158.62243956 189.25625163 158.59497807 192.15261192 158.56762695 195.05029297 C158.56621629 197.12996893 158.56700881 199.20964738 158.56983948 201.2893219 C158.57127432 206.93156688 158.54187287 212.57328063 158.50696969 218.21540213 C158.47571796 224.11306663 158.47277637 230.01074325 158.46684265 235.90847778 C158.45130079 247.07504994 158.41026745 258.2413774 158.3600952 269.4078418 C158.3042126 282.12112651 158.27671792 294.83442288 158.25161803 307.54779983 C158.1993521 333.69866889 158.11140291 359.84932073 158 386 C158.85476551 385.99815641 159.70953102 385.99631283 160.59019852 385.99441338 C181.42402063 385.95017358 202.25783461 385.91711391 223.09169388 385.89637566 C233.16694072 385.88607929 243.24215614 385.87205038 253.31738281 385.84912109 C262.10272263 385.82913693 270.88803968 385.81627166 279.67340159 385.81182301 C284.32173785 385.80922413 288.97000897 385.80314999 293.61832428 385.78853989 C298.00132867 385.77487644 302.38424165 385.77079493 306.76726532 385.77378464 C308.36833698 385.77323837 309.96941197 385.76931346 311.57046509 385.76158905 C330.70276912 385.67387975 346.88786644 388.41872295 362 401 C362.64582031 401.53238281 363.29164063 402.06476563 363.95703125 402.61328125 C374.15662764 411.89192086 380.21119822 425.48563242 382 439 C382.14668492 442.66020013 382.13919819 446.31765628 382.13371277 449.98040771 C382.1371111 451.64360341 382.1371111 451.64360341 382.14057809 453.34039903 C382.14691028 457.05734691 382.14608922 460.77425826 382.14526367 464.49121094 C382.14825566 467.15564103 382.15163 469.82006827 382.15544128 472.48449707 C382.16374014 478.97213639 382.16649579 485.45976661 382.16705366 491.94741079 C382.16752923 497.22273654 382.16958601 502.49805929 382.17275429 507.77338409 C382.18155913 522.73908782 382.18617398 537.70478438 382.18542381 552.67049071 C382.18536388 553.88015543 382.18536388 553.88015543 382.18530273 555.11425781 C382.18524141 556.32540447 382.18524141 556.32540447 382.18517885 557.56101874 C382.18477253 570.64214356 382.19433897 583.72323958 382.2084411 596.80435607 C382.2228161 610.24496385 382.22971065 623.6855576 382.22884732 637.12617326 C382.22851572 644.66839454 382.23124667 652.21058564 382.24202538 659.75279999 C382.25114522 666.17529626 382.25329349 672.59774866 382.24651595 679.02024862 C382.24325809 682.29439533 382.24426121 685.56844074 382.2518692 688.8425827 C382.25959682 692.39901581 382.25493898 695.95522927 382.24723816 699.51165771 C382.2549535 701.04933292 382.2549535 701.04933292 382.26282471 702.61807227 C382.17704422 720.59367801 375.96947597 734.91209153 363.98046875 748.24609375 C359.51520827 752.6259764 354.52630035 755.55060326 349 758.375 C348.34765381 758.70918945 347.69530762 759.04337891 347.02319336 759.38769531 C338.40494634 763.55570321 330.0683122 764.29492281 320.59018326 764.25726891 C319.46599003 764.26077498 318.34179681 764.26428105 317.18353713 764.26789337 C313.41334466 764.27720346 309.64330679 764.27228496 305.87310791 764.26742554 C303.14398346 764.27005879 300.41486695 764.2756838 297.68574691 764.28115618 C291.7503515 764.29144988 285.81498871 764.29430107 279.87958527 764.29224396 C271.05320151 764.28919236 262.2268538 764.29752146 253.40047706 764.30799321 C236.71874985 764.32733183 220.03703493 764.33296137 203.35529783 764.33410732 C190.47280212 764.3350265 177.59031123 764.33914368 164.70781708 764.34550858 C160.99924525 764.34730367 157.29067342 764.3490833 153.58210158 764.35085833 C152.66013375 764.35130043 151.73816592 764.35174252 150.78825967 764.35219802 C124.856217 764.36450582 98.924176 764.3723992 72.99213028 764.37151146 C72.01449877 764.3714803 71.03686726 764.37144914 70.02961056 764.37141704 C65.07459589 764.37125083 60.11958122 764.37105275 55.16456655 764.37084763 C53.68844739 764.37078779 53.68844739 764.37078779 52.18250765 764.37072675 C50.19245955 764.37064587 48.20241145 764.37056228 46.21236334 764.37047596 C15.24930418 764.36925041 -15.71371118 764.38426471 -46.67675781 764.41162109 C-81.46553208 764.44234492 -116.25427757 764.45955342 -151.04306626 764.45769465 C-154.75289551 764.45754539 -158.46272476 764.45744798 -162.17255402 764.45738602 C-163.08600463 764.45736271 -163.99945525 764.4573394 -164.94058619 764.45731538 C-179.63727255 764.45725385 -194.33392087 764.47002288 -209.03059593 764.48725055 C-223.80191527 764.50420755 -238.57317897 764.50618031 -253.34450266 764.4930319 C-262.11792819 764.48564335 -270.89118466 764.48929788 -279.66459227 764.50891658 C-285.52898626 764.52092141 -291.3932579 764.51831996 -297.25764629 764.50397559 C-300.59646679 764.49621662 -303.93469405 764.49686814 -307.27353355 764.51089029 C-332.54511214 764.60998962 -332.54511214 764.60998962 -343 760 C-343.89217972 759.64251974 -344.78435943 759.28503947 -345.7035749 758.91672647 C-359.68899222 753.1111624 -370.2144226 739.57746454 -376 726 C-378.66263293 718.34345501 -379.43411251 711.24510701 -379.38768005 703.17948914 C-379.39306559 702.04065728 -379.39845113 700.90182541 -379.40399987 699.7284835 C-379.41822585 695.93956363 -379.41118874 692.15099578 -379.40405273 688.36206055 C-379.40811831 685.63441063 -379.41662463 682.9067783 -379.42485046 680.17913818 C-379.44199132 673.55512591 -379.44288822 666.93120869 -379.43763756 660.30718001 C-379.43358539 654.91901349 -379.43505181 649.53087493 -379.44038582 644.14270973 C-379.44113424 643.37391646 -379.44188266 642.60512318 -379.44265376 641.81303314 C-379.44418535 640.25088724 -379.4457237 638.68874136 -379.44726873 637.12659547 C-379.46097702 622.4974115 -379.45556812 607.86828109 -379.44408352 593.23909835 C-379.43415549 579.87965882 -379.44708732 566.52035787 -379.47101771 553.16093972 C-379.49544933 539.41729866 -379.50500646 525.67372205 -379.49836498 511.93005973 C-379.49488144 504.22455395 -379.49704729 496.51915466 -379.51461601 488.81366539 C-379.52938905 482.25338277 -379.52990737 475.69328162 -379.5125451 469.13300236 C-379.50407371 465.7913391 -379.50398559 462.45026315 -379.51719666 459.10857582 C-379.59163094 438.7164914 -378.42878199 420.57994504 -363.84375 404.71484375 C-346.68699006 388.75760305 -329.1221772 385.83243053 -306.55639648 385.88647461 C-304.89991762 385.88675705 -303.24343863 385.88659763 -301.58695984 385.8860321 C-297.1124178 385.88574635 -292.63790281 385.89160711 -288.16336703 385.89860606 C-283.47887228 385.90487664 -278.79437684 385.90544632 -274.10987854 385.90663147 C-265.2490973 385.90973388 -256.38832846 385.91793255 -247.52755266 385.92798096 C-237.43563923 385.93917599 -227.34372519 385.94466108 -217.25180709 385.94967639 C-196.50119782 385.9601161 -175.75059969 385.97769438 -155 386 C-155.00645255 384.9138613 -155.0129051 383.82772261 -155.01955318 382.70867062 C-155.17492246 356.28540823 -155.2899669 329.86220505 -155.3626852 303.43858242 C-155.39878565 290.66030586 -155.44800693 277.88233098 -155.52807617 265.10424805 C-155.59782818 253.96736532 -155.64300336 242.83070105 -155.65861946 231.69360596 C-155.66774846 225.7960109 -155.68921515 219.89904086 -155.7401104 214.00164604 C-155.7876294 208.45048453 -155.8022795 202.90020537 -155.79175377 197.34885979 C-155.79367929 195.3118663 -155.80760066 193.27484326 -155.83443832 191.23802567 C-155.86931765 188.45430958 -155.86088213 185.67391583 -155.84178162 182.89012146 C-155.86217151 182.08563031 -155.8825614 181.28113916 -155.90356916 180.45226949 C-155.81606771 175.7284411 -154.93770632 173.46067857 -151.56604099 170.07449436 C-150.38749186 169.03802807 -149.20003086 168.01151686 -148 167 C-146.85643649 165.74584496 -145.7266698 164.47861038 -144.625 163.1875 C-141.95323458 160.09040869 -139.24219622 157.035007 -136.5 154 C-133.81016569 151.01937279 -131.13689636 148.02754767 -128.5 145 C-125.10746907 141.10487189 -121.64805799 137.27217237 -118.1875 133.4375 C-116.27445851 131.30582519 -114.38112388 129.1598089 -112.5 127 C-109.10746907 123.10487189 -105.64805799 119.27217237 -102.1875 115.4375 C-100.27445851 113.30582519 -98.38112388 111.1598089 -96.5 109 C-93.10746907 105.10487189 -89.64805799 101.27217237 -86.1875 97.4375 C-84.27445851 95.30582519 -82.38112388 93.1598089 -80.5 91 C-77.10746907 87.10487189 -73.64805799 83.27217237 -70.1875 79.4375 C-68.27445851 77.30582519 -66.38112388 75.1598089 -64.5 73 C-61.10746907 69.10487189 -57.64805799 65.27217237 -54.1875 61.4375 C-52.27445851 59.30582519 -50.38112388 57.1598089 -48.5 55 C-45.10746907 51.10487189 -41.64805799 47.27217237 -38.1875 43.4375 C-36.27445851 41.30582519 -34.38112388 39.1598089 -32.5 37 C-29.10746907 33.10487189 -25.64805799 29.27217237 -22.1875 25.4375 C-19.70618103 22.67260172 -17.26288279 19.87669281 -14.82421875 17.07421875 C-11.95736798 13.81448051 -9.03411516 10.60589216 -6.11328125 7.39453125 C-3.99127508 4.99011391 -1.98279012 2.51988903 0 0 Z " fill="#FF6B57" transform="translate(379,0)"/>
<path d="M0 0 C0 14.52 0 29.04 0 44 C8.7030247 36.92258147 8.7030247 36.92258147 17 29.5 C21.60087874 25.21150343 26.36545743 21.20337693 31.26953125 17.26171875 C35.08064452 14.10487385 38.68942153 10.7455123 42.296875 7.359375 C45.35519339 4.68997571 48.69670273 2.35949805 52 0 C52 11.88 52 23.76 52 36 C60.43549905 29.15872289 60.43549905 29.15872289 68.5 22 C72.97959295 17.87775349 77.60510015 14.00310893 82.34375 10.18359375 C85.76570473 7.37054567 89.04911973 4.41957576 92.3203125 1.43359375 C94 0 94 0 95 0 C95.33 19.47 95.66 38.94 96 59 C100.29 55.04 104.58 51.08 109 47 C114.5625 42.4375 114.5625 42.4375 117.25390625 40.27734375 C120.26319147 37.78173453 123.13937022 35.16233195 126 32.5 C130.60865519 28.21163745 135.37465516 24.19783493 140.28125 20.25 C143.12657378 17.89524929 145.8464629 15.4399162 148.5625 12.9375 C162.63380282 0 162.63380282 0 165 0 C165.33 11.55 165.66 23.1 166 35 C169.3 32.03 172.6 29.06 176 26 C177.79741785 24.50254237 179.60640621 23.01858578 181.4375 21.5625 C186.28080261 17.64401472 190.88983561 13.51831598 195.48046875 9.30859375 C204.54822335 1 204.54822335 1 207 1 C207 74.26 207 147.52 207 223 C117.9 223 28.8 223 -63 223 C-63.268125 195.3625 -63.53625 167.725 -63.8125 139.25 C-63.93085205 130.53625977 -64.0492041 121.82251953 -64.17114258 112.84472656 C-64.2298584 102.17138672 -64.2298584 102.17138672 -64.24076843 97.168396 C-64.25284139 93.68698564 -64.30137889 90.20817391 -64.3724823 86.72747803 C-64.46220097 82.27599495 -64.48829433 77.82824501 -64.46993959 73.37594175 C-64.47377216 71.749372 -64.49925074 70.12266114 -64.5497967 68.49687243 C-64.74791188 61.80955643 -64.8767551 55.72721824 -60.20441246 50.45311737 C-57.52428608 47.81197197 -54.66738318 45.4683507 -51.64861333 43.22627211 C-49.14932025 41.36724711 -46.7726599 39.3622977 -44.375 37.375 C-43.48554688 36.66085938 -42.59609375 35.94671875 -41.6796875 35.2109375 C-38.86746685 32.8906505 -36.18202737 30.46928866 -33.5 28 C-29.94329756 24.72581577 -26.32838189 21.59357567 -22.5625 18.5625 C-17.88332763 14.79092572 -13.44342786 10.82256632 -9.05883789 6.71704102 C-1.85998899 0 -1.85998899 0 0 0 Z " fill="#FFF8BC" transform="translate(308,184)"/>
<path d="M0 0 C4.95 0 9.9 0 15 0 C15 26.73 15 53.46 15 81 C10.05 82.65 5.1 84.3 0 86 C0 72.47 0 58.94 0 45 C-4.62 45 -9.24 45 -14 45 C-14.0825 46.27875 -14.165 47.5575 -14.25 48.875 C-15.11592609 56.21805322 -17.12395599 62.65934714 -22.5625 67.875 C-32.58645365 75.62661315 -43.81613598 76.10844325 -56 75 C-63.64412691 73.74328892 -70.18799551 69.81454523 -74.796875 63.5625 C-79.88734814 55.41774297 -80.20418068 48.6887789 -80.25 39.25 C-80.270625 38.20328125 -80.29125 37.1565625 -80.3125 36.078125 C-80.35892768 26.79258842 -78.73968991 19.21726119 -72.8828125 11.859375 C-64.51981266 3.60047889 -55.69762312 2.59876747 -44.55053711 2.54907227 C-35.22169345 2.71295015 -28.56953265 4.37365256 -21.80078125 11.2265625 C-16.93714251 17.1260675 -14.89409879 22.40016029 -14 30 C-7.07 30.495 -7.07 30.495 0 31 C0 20.77 0 10.54 0 0 Z " fill="#FFF7BB" transform="translate(618,540)"/>
<path d="M0 0 C4.95 0 9.9 0 15 0 C15 26.73 15 53.46 15 81 C3 85 3 85 0 85 C0 78.73 0 72.46 0 66 C-2.660625 66.5053125 -5.32125 67.010625 -8.0625 67.53125 C-30.48744991 71.66861318 -51.16065049 73.74708153 -74 73 C-74 59.47 -74 45.94 -74 32 C-60.14 32 -46.28 32 -32 32 C-32 26.39 -32 20.78 -32 15 C-45.86 15 -59.72 15 -74 15 C-74 11.04 -74 7.08 -74 3 C-55.19 3 -36.38 3 -17 3 C-17 16.2 -17 29.4 -17 43 C-30.86 43 -44.72 43 -59 43 C-59 48.94 -59 54.88 -59 61 C-44.87017854 60.7605115 -31.50242132 58.70018383 -17.65673828 56.08349609 C-16.93308578 55.94817978 -16.20943329 55.81286346 -15.46385193 55.67344666 C-13.47503341 55.29980642 -11.4878239 54.91763079 -9.50073242 54.53491211 C-6 54 -6 54 0 54 C0 36.18 0 18.36 0 0 Z " fill="#FFF5BA" transform="translate(508,540)"/>
<path d="M0 0 C26.07 0 52.14 0 79 0 C79 10.125 79 10.125 78.125 15.34765625 C77.85429687 16.99604492 77.85429687 16.99604492 77.578125 18.67773438 C77.38734375 19.79470703 77.1965625 20.91167969 77 22.0625 C76.80921875 23.21427734 76.6184375 24.36605469 76.421875 25.55273438 C75.95435123 28.36956511 75.47806935 31.18493986 75 34 C79.29 34 83.58 34 88 34 C88 37.63 88 41.26 88 45 C55.99 45 23.98 45 -9 45 C-9 41.37 -9 37.74 -9 34 C14.1 34 37.2 34 61 34 C61 31.69 61 29.38 61 27 C59.67500488 27.04543945 59.67500488 27.04543945 58.32324219 27.09179688 C38.53840653 27.75691936 18.79803525 28.14119043 -1 28 C-1 24.7 -1 21.4 -1 18 C1.75090316 16.62454842 4.06303649 16.78262506 7.140625 16.68359375 C8.42582031 16.64161865 9.71101563 16.59964355 11.03515625 16.55639648 C12.44009249 16.51635251 13.8450408 16.47672995 15.25 16.4375 C15.95431152 16.41632111 16.65862305 16.39514221 17.38427734 16.37332153 C32.59047006 15.91908769 47.78816062 15.89252505 63 16 C63.33 14.35 63.66 12.7 64 11 C42.88 11 21.76 11 0 11 C0 7.37 0 3.74 0 0 Z " fill="#FFF7BB" transform="translate(332,540)"/>
<path d="M0 0 C27.39 0 54.78 0 83 0 C83 11.55 83 23.1 83 35 C55.61 35 28.22 35 0 35 C0 23.45 0 11.9 0 0 Z " fill="#FFF3B8" transform="translate(195,591)"/>
<path d="M0 0 C3.93472548 1.31157516 5.12683424 3.33383447 7.6875 6.5625 C8.49574219 7.57441406 9.30398438 8.58632813 10.13671875 9.62890625 C10.75160156 10.41136719 11.36648438 11.19382812 12 12 C10.45427224 15.81628832 8.11228755 17.97025743 5.0625 20.6875 C4.57523437 21.12320312 4.08796875 21.55890625 3.5859375 22.0078125 C-0.58706437 25.70880387 -4.90940167 29.21667635 -9.25 32.71875 C-12.08099578 35.06718968 -14.79383598 37.50909902 -17.5 40 C-32.0273772 53.33934205 -32.0273772 53.33934205 -38 56 C-38.81082031 55.23816406 -39.62164062 54.47632813 -40.45703125 53.69140625 C-47.43179435 47.1749938 -54.51931693 40.93657414 -62 35 C-67.8745039 39.14076779 -73.15311805 43.78314293 -78.43359375 48.65234375 C-81.21915222 51.20047258 -84.06844909 53.62306683 -87 56 C-90.44779086 54.49993609 -92.82360533 52.49590738 -95.5625 49.9375 C-100.05856136 45.81279474 -104.69641848 41.92459725 -109.4375 38.0859375 C-112.67739086 35.44858732 -115.84317799 32.73591241 -119 30 C-117.62815653 25.93501119 -115.77931541 23.32603439 -112.875 20.1875 C-111.78832031 19.00220703 -111.78832031 19.00220703 -110.6796875 17.79296875 C-110.12539063 17.20128906 -109.57109375 16.60960937 -109 16 C-104.75378041 16.50954635 -102.58476987 18.94951758 -99.5625 21.8125 C-96.14160854 25.03356192 -92.7085848 28.11255376 -89 31 C-84.76844611 29.27176636 -81.64425519 26.28621996 -78.25 23.3125 C-77.63108887 22.77592773 -77.01217773 22.23935547 -76.37451172 21.68652344 C-74.57934704 20.12849142 -72.78905753 18.56503732 -71 17 C-70.11054688 16.22527344 -69.22109375 15.45054687 -68.3046875 14.65234375 C-66.53266379 13.10579259 -64.76393173 11.55576588 -63 10 C-57.1254961 14.14076779 -51.84688195 18.78314293 -46.56640625 23.65234375 C-43.78084778 26.20047258 -40.93155091 28.62306683 -38 31 C-29.11836581 27.04344834 -21.85469232 19.00957982 -14.7890625 12.50390625 C-11.0032813 9.10518671 -7.07864278 5.9075747 -3.1171875 2.71484375 C-1.13793226 1.17273924 -1.13793226 1.17273924 0 0 Z " fill="#FF6C58" transform="translate(419,303)"/>
<path d="M0 0 C4.95 0 9.9 0 15 0 C15 26.73 15 53.46 15 81 C3 85 3 85 0 85 C0 71.8 0 58.6 0 45 C-5.28 45 -10.56 45 -16 45 C-16.103125 46.794375 -16.20625 48.58875 -16.3125 50.4375 C-16.93525125 58.7347446 -18.44504484 66.83404053 -20 75 C-24.95 75 -29.9 75 -35 75 C-28.89602446 35.48012232 -28.89602446 35.48012232 -25 16 C-35.89 16 -46.78 16 -58 16 C-58 12.37 -58 8.74 -58 5 C-41.83 5 -25.66 5 -9 5 C-10.32 13.58 -11.64 22.16 -13 31 C-8.71 31 -4.42 31 0 31 C0 20.77 0 10.54 0 0 Z " fill="#FFF6BB" transform="translate(134,540)"/>
<path d="M0 0 C4.32661496 2.92742708 8.14615445 5.99727804 10 11 C10.73943213 17.98161496 11.09089918 25.23570274 7.31640625 31.390625 C1.99733866 37.89346134 -5.79505008 40.43812639 -13.96044922 41.31958008 C-17.10539605 41.47274145 -20.22642077 41.51889387 -23.375 41.5 C-24.47755127 41.49427979 -25.58010254 41.48855957 -26.71606445 41.48266602 C-35.67054671 41.28565281 -43.03056689 40.42605573 -49.96484375 34.25 C-55.42571273 28.28801599 -56.52924976 23.30180731 -56.3671875 15.26171875 C-55.70463629 9.37629047 -53.39564315 6.00159343 -48.91015625 2.25390625 C-35.96600031 -6.97295362 -14.1377795 -7.16286317 0 0 Z " fill="#FFF5BA" transform="translate(240,543)"/>
<path d="M0 0 C26.4 0 52.8 0 80 0 C80 7.59 80 15.18 80 23 C58.55 23 37.1 23 15 23 C15 24.65 15 26.3 15 28 C37.77 28 60.54 28 84 28 C84 31.3 84 34.6 84 38 C56.28 38 28.56 38 0 38 C0 30.08 0 22.16 0 14 C21.45 14 42.9 14 65 14 C65 12.68 65 11.36 65 10 C43.55 10 22.1 10 0 10 C0 6.7 0 3.4 0 0 Z " fill="#FFF2B8" transform="translate(331,589)"/>
<path d="M0 0 C17.41672016 2.14769822 34.8097659 2.8887807 52.34545898 2.83300781 C53.39576294 2.83284668 54.44606689 2.83268555 55.52819824 2.83251953 C72.69713158 2.8143204 89.58035672 1.93175496 106.61791992 -0.20410156 C109.24726712 -0.46957808 111.70844346 -0.67648152 114.34545898 -0.47949219 C116.76733398 1.60253906 116.76733398 1.60253906 119.09545898 4.33300781 C120.26334961 5.67298828 120.26334961 5.67298828 121.45483398 7.04003906 C123.34545898 9.52050781 123.34545898 9.52050781 124.34545898 12.52050781 C85.44695583 18.64304241 44.50527905 20.14915446 5.34545898 15.52050781 C4.22155762 15.39208496 3.09765625 15.26366211 1.93969727 15.13134766 C-5.26411785 14.30545127 -12.4615951 13.43614047 -19.65454102 12.52050781 C-19.24534424 11.9785376 -18.83614746 11.43656738 -18.41455078 10.87817383 C-17.60715454 9.80587524 -17.60715454 9.80587524 -16.78344727 8.71191406 C-16.25050049 8.00494385 -15.71755371 7.29797363 -15.16845703 6.56958008 C-13.93274518 4.89705475 -12.75365111 3.1828228 -11.59204102 1.45800781 C-7.49533889 -1.24407231 -4.77393994 -0.59565267 0 0 Z " fill="#FFF7BC" transform="translate(327.654541015625,100.4794921875)"/>
<path d="M0 0 C5.1728826 2.66481831 7.94534243 6.9141523 9.7421875 12.3046875 C9.99705756 15.71685693 9.97352067 19.13399133 9.9921875 22.5546875 C10.0128125 23.48410156 10.0334375 24.41351562 10.0546875 25.37109375 C10.09570426 32.62080554 9.18302289 37.48833897 4.3046875 43.1171875 C-0.73008963 47.41516798 -4.68064153 47.81116543 -11.2109375 47.67578125 C-15.7519682 47.122707 -19.14937544 45.69570975 -22.2578125 42.3046875 C-26.55382919 36.09879337 -26.90166857 30.18416118 -26.8203125 22.8046875 C-26.84416016 21.81082031 -26.86800781 20.81695313 -26.89257812 19.79296875 C-26.8761981 11.52651485 -24.55816786 6.60504286 -18.7578125 0.8046875 C-12.85761104 -1.72397027 -6.16816969 -1.89954015 0 0 Z " fill="#FF6C58" transform="translate(579.2578125,555.6953125)"/>
<path d="M0 0 C0.99 0.33 1.98 0.66 3 1 C7.03527221 6.69685489 8.70165552 12.21521659 7.67578125 19.2109375 C6.88519714 22.61361151 6.05515558 26.14561725 4 29 C2.67405895 29.36162029 1.34061543 29.69728039 0 30 C-0.33 30.99 -0.66 31.98 -1 33 C-4.54969046 34.8781431 -7.58263167 35.27214113 -11.5625 35.25 C-12.49191406 35.25515625 -13.42132813 35.2603125 -14.37890625 35.265625 C-17.08494288 34.99139178 -18.67519197 34.36334475 -21 33 C-21.66 32.67 -22.32 32.34 -23 32 C-23 31.34 -23 30.68 -23 30 C-23.99 30 -24.98 30 -26 30 C-26.82011312 28.44148245 -27.63076213 26.87798284 -28.4375 25.3125 C-28.88996094 24.44238281 -29.34242188 23.57226562 -29.80859375 22.67578125 C-32.22740984 17.24335824 -32.16502679 13.76482556 -30.12890625 8.27734375 C-26.87648002 1.71622094 -21.34733935 -2.10366857 -14.56640625 -4.546875 C-8.98524803 -5.53228498 -4.53173304 -3.02115536 0 0 Z " fill="#FF6F5A" transform="translate(390,271)"/>
<path d="M0 0 C4.20702201 5.39024696 4.42033881 13.05572485 3.71484375 19.67578125 C2.88166114 24.06574343 2.88166114 24.06574343 2 26 C1.01 26.33 0.02 26.66 -1 27 C-1 27.99 -1 28.98 -1 30 C-7.39721643 33.8624703 -12.53914518 34.98796708 -20 34 C-23.6875 32.5 -23.6875 32.5 -26 31 C-26 30.34 -26 29.68 -26 29 C-26.92039062 28.86464844 -26.92039062 28.86464844 -27.859375 28.7265625 C-30 28 -30 28 -31.265625 26.3984375 C-34.86402746 19.00172133 -34.59597534 12.70680179 -32 5 C-30.06701972 0.85789939 -28.17207478 -1.10360237 -24 -3 C-15.22639015 -4.82093789 -7.66720632 -4.98134178 0 0 Z " fill="#FF6F5A" transform="translate(348,272)"/>
<path d="M0 0 C4.62 0 9.24 0 14 0 C14 26.4 14 52.8 14 80 C2 84 2 84 0 84 C0 56.28 0 28.56 0 0 Z " fill="#FFF8BC" transform="translate(160,541)"/>
<path d="M0 0 C5.94 0 11.88 0 18 0 C18.10298094 12.75676406 17.73181819 25.39185463 17 38.125 C16.9031944 39.87367298 16.80683836 41.62237091 16.7109375 43.37109375 C16.47910894 47.5810331 16.24130763 51.79059379 16 56 C11.38 56 6.76 56 2 56 C1.71025373 50.43586974 1.42566855 44.87150592 1.14550781 39.30688477 C1.04986094 37.42074769 0.95289481 35.53467696 0.85449219 33.64868164 C0.26939839 22.4154778 -0.1141329 11.24922365 0 0 Z " fill="#FFF5BA" transform="translate(653,539)"/>
<path d="M0 0 C0.78568359 -0.01611328 1.57136719 -0.03222656 2.38085938 -0.04882812 C7.33854061 -0.05297681 10.79232397 0.52873639 15.0625 3.3125 C17.44192371 6.88163557 17.59453299 8.8994766 17.51953125 13.0859375 C16.97964514 15.71615189 16.276822 16.59246743 14.25 18.3125 C8.99079276 21.61239474 4.76091685 21.55695188 -1.25 21.625 C-2.09240234 21.65400391 -2.93480469 21.68300781 -3.80273438 21.71289062 C-9.35733264 21.76934862 -12.56658517 21.07351974 -16.9375 17.3125 C-19.43781654 13.56202518 -19.47353554 11.75393734 -18.9375 7.3125 C-13.67353308 0.54454253 -8.02397249 -0.03275091 0 0 Z " fill="#FF6C58" transform="translate(217.9375,550.6875)"/>
<path d="M0 0 C4.95 0 9.9 0 15 0 C15 13.86 15 27.72 15 42 C5 45 5 45 0 45 C0 30.15 0 15.3 0 0 Z " fill="#FFF6BB" transform="translate(263,541)"/>
<path d="M0 0 C17.16 0 34.32 0 52 0 C52 3.96 52 7.92 52 12 C34.84 12 17.68 12 0 12 C0 8.04 0 4.08 0 0 Z " fill="#FF715B" transform="translate(210,602)"/>
<path d="M0 0 C5.28 0 10.56 0 16 0 C16 5.28 16 10.56 16 16 C10.72 16 5.44 16 0 16 C0 10.72 0 5.44 0 0 Z " fill="#FFF9BD" transform="translate(654,608)"/>
</svg>
