<?xml version="1.0" encoding="UTF-8"?>
<svg version="1.1" xmlns="http://www.w3.org/2000/svg" width="246" height="372">
<path d="M0 0 C0.71436169 -0.00367669 1.42872338 -0.00735338 2.1647324 -0.01114148 C4.55887981 -0.02215586 6.95298378 -0.02601837 9.34715271 -0.02983093 C11.06386451 -0.03609741 12.78057496 -0.04274437 14.49728394 -0.04974365 C20.13660236 -0.07076908 25.775921 -0.08114639 31.41526794 -0.09111023 C33.35903881 -0.09515871 35.30280954 -0.09927566 37.24658012 -0.10346031 C46.38169708 -0.12251068 55.51680598 -0.13674059 64.65193897 -0.14507228 C75.18318823 -0.1548367 85.71422685 -0.1811361 96.24540192 -0.22157317 C104.39335955 -0.25178108 112.54125697 -0.26654569 120.68926948 -0.26985329 C125.55164466 -0.27219894 130.41379479 -0.28109573 135.2761097 -0.30631447 C139.85541454 -0.32968133 144.43434754 -0.33379396 149.01369667 -0.32355309 C150.68776439 -0.32305966 152.36185095 -0.32932263 154.03586197 -0.34310913 C167.51638115 -0.44785176 178.06402687 1.6714018 188.91136169 10.14717102 C189.52753357 10.62541321 190.14370544 11.1036554 190.77854919 11.59638977 C197.16554271 17.23113739 202.24334883 26.75427589 203.91136169 35.14717102 C204.00310354 36.87128195 204.04218902 38.59853511 204.04558277 40.32508183 C204.05004062 41.3782478 204.05449846 42.43141377 204.05909139 43.51649386 C204.05890703 44.67240556 204.05872266 45.82831726 204.05853271 47.01925659 C204.0622094 48.24814588 204.06588609 49.47703517 204.06967419 50.74316353 C204.0787944 54.15617813 204.08340927 57.56914467 204.0860635 60.98216689 C204.08996976 64.66264887 204.09954793 68.34311697 204.10827637 72.02359009 C204.12803256 80.91341073 204.13810629 89.8032325 204.14700416 98.69306961 C204.15138878 102.88115459 204.15675517 107.06923832 204.16199303 111.25732231 C204.17900509 125.1827102 204.19349849 139.10809731 204.20074177 153.033494 C204.20265161 156.64666304 204.20457195 160.25983208 204.20652771 163.8730011 C204.20701145 164.77101934 204.20749519 165.66903758 204.20799359 166.59426849 C204.21629101 181.13630693 204.24162317 195.67826302 204.27410839 210.22026552 C204.30720026 225.15582082 204.32519249 240.09133431 204.32838601 255.02692646 C204.33054922 263.41041382 204.33927015 271.79378115 204.36484718 280.17723274 C204.38658335 287.31819032 204.39459033 294.4589987 204.3848804 301.59998561 C204.38034399 305.2408969 204.382183 308.88150054 204.40164185 312.52236938 C204.42259479 316.47710614 204.41226139 320.43142213 204.39910889 324.38619995 C204.41007813 325.5264966 204.42104738 326.66679325 204.43234903 327.84164435 C204.34184998 339.14145954 200.85133837 348.26535173 193.91136169 357.14717102 C193.43311951 357.7633429 192.95487732 358.37951477 192.46214294 359.01435852 C186.87230883 365.35044253 177.27434747 370.57059074 168.91136169 372.14717102 C166.55003623 372.24590236 164.18609884 372.28645099 161.82272339 372.29434204 C161.1083617 372.29801873 160.39400001 372.30169542 159.65799099 372.30548352 C157.26384358 372.3164979 154.86973961 372.32036042 152.47557068 372.32417297 C150.75885888 372.33043945 149.04214843 372.33708641 147.32543945 372.34408569 C141.68612103 372.36511112 136.04680239 372.37548844 130.40745544 372.38545227 C128.46368457 372.38950075 126.51991385 372.3936177 124.57614326 372.39780235 C115.44102631 372.41685272 106.30591741 372.43108263 97.17078441 372.43941432 C86.63953516 372.44917874 76.10849654 372.47547814 65.57732147 372.51591522 C57.42936384 372.54612313 49.28146642 372.56088773 41.13345391 372.56419533 C36.27107873 372.56654098 31.4089286 372.57543777 26.54661369 372.60065651 C21.96730885 372.62402337 17.38837585 372.628136 12.80902672 372.61789513 C11.134959 372.6174017 9.46087244 372.62366467 7.78686142 372.63745117 C-5.69365776 372.7421938 -16.24130349 370.62294024 -27.08863831 362.14717102 C-27.70481018 361.66892883 -28.32098206 361.19068665 -28.95582581 360.69795227 C-35.34281933 355.06320465 -40.42062544 345.54006615 -42.08863831 337.14717102 C-42.18038015 335.42306009 -42.21946563 333.69580693 -42.22285938 331.96926022 C-42.22731723 330.91609425 -42.23177507 329.86292827 -42.236368 328.77784818 C-42.23618364 327.62193648 -42.23599928 326.46602478 -42.23580933 325.27508545 C-42.23948601 324.04619616 -42.2431627 322.81730687 -42.24695081 321.55117851 C-42.25607101 318.13816391 -42.26068589 314.72519737 -42.26334012 311.31217515 C-42.26724637 307.63169317 -42.27682454 303.95122507 -42.28555298 300.27075195 C-42.30530917 291.38093131 -42.3153829 282.49110954 -42.32428077 273.60127243 C-42.32866539 269.41318745 -42.33403178 265.22510372 -42.33926964 261.03701973 C-42.3562817 247.11163184 -42.3707751 233.18624473 -42.37801838 219.26084805 C-42.37992822 215.647679 -42.38184856 212.03450996 -42.38380432 208.42134094 C-42.38428806 207.5233227 -42.3847718 206.62530446 -42.3852702 205.70007355 C-42.39356763 191.15803512 -42.41889978 176.61607902 -42.451385 162.07407653 C-42.48447687 147.13852122 -42.5024691 132.20300773 -42.50566262 117.26741558 C-42.50782584 108.88392822 -42.51654676 100.50056089 -42.54212379 92.1171093 C-42.56385996 84.97615172 -42.57186694 77.83534334 -42.56215701 70.69435643 C-42.5576206 67.05344514 -42.55945961 63.4128415 -42.57891846 59.77197266 C-42.5998714 55.8172359 -42.589538 51.86291991 -42.5763855 47.90814209 C-42.58735474 46.76784544 -42.59832399 45.62754879 -42.60962564 44.45269769 C-42.5191266 33.15288251 -39.02861498 24.02899031 -32.08863831 15.14717102 C-31.61039612 14.53099915 -31.13215393 13.91482727 -30.63941956 13.27998352 C-23.0423659 4.66871363 -11.24332614 0.03754024 0 0 Z " fill="#0C6D58" transform="translate(42.08863830566406,-0.1471710205078125)"/>
<path d="M0 0 C1.29286423 -0.00137466 2.58572845 -0.00274933 3.91777039 -0.00416565 C5.34835839 -0.00062671 6.77894615 0.00300809 8.20953369 0.00672913 C9.71749367 0.00701123 11.22545379 0.00685281 12.7334137 0.00628662 C16.82603354 0.00599955 20.91862411 0.01188172 25.01123714 0.01886058 C29.28869923 0.02510912 33.56616198 0.02569911 37.84362793 0.02688599 C45.94313292 0.02999487 54.04262442 0.0382023 62.14212346 0.04823548 C71.36332067 0.05941035 80.58451851 0.06491053 89.80572081 0.06993091 C108.7739916 0.08038527 127.74224984 0.09797616 146.71051025 0.12025452 C145.75742819 1.23467653 144.80398984 2.34879384 143.85040283 3.46278381 C143.31949539 4.08324081 142.78858795 4.70369781 142.24159241 5.34295654 C140.32467876 7.5681322 138.36825916 9.75472041 136.39801025 11.93275452 C135.62843994 12.78611389 134.85886963 13.63947327 134.065979 14.51869202 C132.53047141 16.21462578 130.99156653 17.90749168 129.4487915 19.59681702 C125.60076729 23.82762898 121.86836562 28.10937108 118.27301025 32.55775452 C114.4110935 37.33309853 110.33376802 41.85693137 106.175354 46.37416077 C103.78343728 49.03900618 101.51796142 51.76857277 99.27301025 54.55775452 C95.45097652 59.30281966 91.41889516 63.79668143 87.25177002 68.23719788 C84.67950994 70.95940425 84.67950994 70.95940425 82.71051025 74.12025452 C103.50051025 74.12025452 124.29051025 74.12025452 145.71051025 74.12025452 C143.77773947 77.98579609 141.57650759 80.6106007 138.64801025 83.68275452 C135.00124745 87.57809234 131.49545723 91.52235614 128.14801025 95.68275452 C125.11693458 99.44863641 121.98469449 103.06355208 118.71051025 106.62025452 C112.6925324 113.16398395 107.00052268 119.97293366 101.71051025 127.12025452 C102.49426025 127.16150452 103.27801025 127.20275452 104.08551025 127.24525452 C113.34727695 129.48085337 119.77693144 135.13582752 124.71051025 143.12025452 C128.5508216 149.87976932 128.40095226 157.52007206 128.71051025 165.12025452 C131.68051025 162.48025452 134.65051025 159.84025452 137.71051025 157.12025452 C141.57631469 159.05315673 143.11977164 160.39491456 145.89801025 163.55775452 C146.68433838 164.45236389 147.4706665 165.34697327 148.28082275 166.26869202 C151.40976728 169.94092595 154.45724516 173.67453779 157.49176025 177.42494202 C160.78476035 181.42524143 164.23179431 185.28134455 167.71051025 189.12025452 C166.21503945 192.71746807 164.18344718 194.75122672 161.27301025 197.30775452 C159.927229 198.49111389 159.927229 198.49111389 158.55426025 199.69837952 C154.9173332 202.79576244 151.2099429 205.80003824 147.4956665 208.80384827 C143.69941981 211.96117546 140.09267667 215.30826043 136.46051025 218.65150452 C132.89866797 221.84906748 129.18485192 224.83413794 125.46051025 227.83900452 C122.62951447 230.1874442 119.91667428 232.62935354 117.21051025 235.12025452 C113.45136996 238.56118924 109.66148648 241.95063588 105.77301025 245.24525452 C104.89773682 245.99033264 104.02246338 246.73541077 103.1206665 247.50306702 C100.71051025 249.12025452 100.71051025 249.12025452 96.71051025 249.12025452 C95.00640869 248.03797913 95.00640869 248.03797913 93.31988525 246.52259827 C92.69605957 245.97112122 92.07223389 245.41964417 91.42950439 244.85145569 C90.77973633 244.2595343 90.12996826 243.66761292 89.46051025 243.05775452 C88.79462891 242.4651886 88.12874756 241.87262268 87.44268799 241.26210022 C86.12401901 240.08785919 84.80873703 238.90980178 83.49713135 237.72767639 C81.27676325 235.73001261 79.02749463 233.76676787 76.77301025 231.80775452 C75.75182602 230.91232121 74.73081571 230.01668902 73.71051025 229.12025452 C69.2210245 230.54315164 66.33837828 233.02947815 63.02301025 236.24525452 C57.80838736 241.17370909 52.39290414 245.73274242 46.71051025 250.12025452 C43.26271939 248.62019061 40.88690492 246.61616189 38.14801025 244.05775452 C32.8401676 239.18896532 27.30817452 234.64919415 21.71051025 230.12025452 C19.70372104 228.46146343 17.70623696 226.79234986 15.71051025 225.12025452 C15.05051025 226.11025452 14.39051025 227.10025452 13.71051025 228.12025452 C13.05051025 228.12025452 12.39051025 228.12025452 11.71051025 228.12025452 C11.46429932 228.68615295 11.21808838 229.25205139 10.9644165 229.83509827 C9.49514802 232.5127371 7.7329859 234.45069064 5.64801025 236.68275452 C2.39943534 240.22193677 -0.7141719 243.8158562 -3.72698975 247.55775452 C-6.75666689 251.30678307 -9.88553923 254.89998319 -13.16448975 258.43275452 C-16.90876292 262.49531984 -20.36013309 266.68550046 -23.72698975 271.05775452 C-27.44445873 275.87888868 -31.29934587 280.50741836 -35.41448975 284.99525452 C-36.1249646 285.77243835 -36.1249646 285.77243835 -36.84979248 286.56532288 C-37.97266843 287.7727721 -39.12785442 288.95004624 -40.28948975 290.12025452 C-40.61948975 290.12025452 -40.94948975 290.12025452 -41.28948975 290.12025452 C-41.38081143 257.8220218 -41.45156519 225.52382594 -41.49375106 193.22549422 C-41.49875367 189.40924548 -41.50393098 185.59299701 -41.50921631 181.77674866 C-41.51026555 181.01702731 -41.51131479 180.25730595 -41.51239583 179.47456274 C-41.52978388 167.18585403 -41.5613127 154.89722044 -41.59810093 142.60855623 C-41.63555498 129.99191935 -41.65773502 117.37532172 -41.66584373 104.75863153 C-41.67132227 96.97832784 -41.68860293 89.19823652 -41.72115561 81.41799823 C-41.74487131 75.44422491 -41.74729836 69.47063288 -41.74192047 63.4968071 C-41.74301871 61.05193973 -41.75094588 58.60706413 -41.76631165 56.1622448 C-41.78630809 52.81581816 -41.78139304 49.47028915 -41.77050781 46.12384033 C-41.78215918 45.16368977 -41.79381054 44.20353921 -41.80581498 43.21429318 C-41.71210775 32.50520339 -37.83506099 23.49731163 -31.28948975 15.12025452 C-30.81124756 14.50408264 -30.33300537 13.88791077 -29.840271 13.25306702 C-22.55638482 4.99677286 -10.86876647 -0.00890882 0 0 Z " fill="#177660" transform="translate(41.28948974609375,-0.1202545166015625)"/>
<path d="M0 0 C3.125 2.25 3.125 2.25 5 4 C8.68879299 2.19752161 12.22650083 0.1723788 15.78125 -1.87890625 C22.81886801 -5.43488577 31.9414143 -5.13208236 39.375 -3.05859375 C49.62597432 1.02898226 55.89419609 6.67747061 60.75 16.5625 C62.81233308 22.44655766 62.74858333 28.82728723 63 35 C65.97 32.36 68.94 29.72 72 27 C75.86580444 28.93290222 77.40926139 30.27466005 80.1875 33.4375 C80.97382813 34.33210938 81.76015625 35.22671875 82.5703125 36.1484375 C85.69925703 39.82067143 88.7467349 43.55428328 91.78125 47.3046875 C95.0742501 51.30498692 98.52128406 55.16109003 102 59 C100.5045292 62.59721356 98.47293692 64.63097221 95.5625 67.1875 C94.21671875 68.37085938 94.21671875 68.37085938 92.84375 69.578125 C89.20682295 72.67550793 85.49943265 75.67978372 81.78515625 78.68359375 C77.98890956 81.84092094 74.38216642 85.18800591 70.75 88.53125 C67.18815771 91.72881296 63.47434167 94.71388343 59.75 97.71875 C56.91900422 100.06718968 54.20616402 102.50909902 51.5 105 C47.74085971 108.44093473 43.95097623 111.83038136 40.0625 115.125 C39.18722656 115.87007813 38.31195313 116.61515625 37.41015625 117.3828125 C35 119 35 119 31 119 C29.29589844 117.91772461 29.29589844 117.91772461 27.609375 116.40234375 C26.98554932 115.8508667 26.36172363 115.29938965 25.71899414 114.73120117 C25.06922607 114.13927979 24.41945801 113.5473584 23.75 112.9375 C23.08411865 112.34493408 22.4182373 111.75236816 21.73217773 111.1418457 C20.41350875 109.96760467 19.09822677 108.78954726 17.78662109 107.60742188 C15.56625299 105.60975809 13.31698437 103.64651335 11.0625 101.6875 C10.04131576 100.79206669 9.02030546 99.89643451 8 99 C3.51051424 100.42289712 0.62786802 102.90922363 -2.6875 106.125 C-7.9021229 111.05345457 -13.31760611 115.61248791 -19 120 C-22.44779086 118.49993609 -24.82360533 116.49590738 -27.5625 113.9375 C-31.10168226 110.68892508 -34.69560168 107.57531784 -38.4375 104.5625 C-43.20207978 100.70928851 -47.71676624 96.64251948 -52.22265625 92.4921875 C-55.90202754 89.19058569 -59.72703588 86.09123204 -63.58984375 83.0078125 C-65.86458234 81.11281147 -67.94382399 79.12773666 -70 77 C-68.71076019 74.21176763 -67.31380469 72.01003398 -65.27734375 69.71484375 C-64.74230225 69.10737305 -64.20726074 68.49990234 -63.65600586 67.87402344 C-62.80534546 66.91544434 -62.80534546 66.91544434 -61.9375 65.9375 C-61.07427124 64.93831543 -61.07427124 64.93831543 -60.19360352 63.91894531 C-57.53853226 60.84640074 -54.86946498 57.8313433 -52 54.95703125 C-49.55649893 52.37571076 -47.57518961 50.18879847 -46 47 C-46.40325357 43.95726852 -47.4262105 41.77297396 -48.77734375 39.0234375 C-51.61070438 32.01698021 -51.24513681 23.04489166 -48.375 16.0625 C-47.6302444 14.68197743 -46.83791559 13.32604711 -46 12 C-45.57589844 11.30390625 -45.15179688 10.6078125 -44.71484375 9.890625 C-34.81962122 -4.77304738 -15.32374952 -8.72274973 0 0 Z " fill="#FBF7BB" transform="translate(107,130)"/>
<path d="M0 0 C22.11 0 44.22 0 67 0 C63.58868577 3.9798666 60.19967513 7.92992599 56.6875 11.8125 C55.91792969 12.66585938 55.14835937 13.51921875 54.35546875 14.3984375 C52.81996116 16.09437126 51.28105628 17.78723716 49.73828125 19.4765625 C45.89025704 23.70737446 42.15785536 27.98911656 38.5625 32.4375 C34.69825236 37.21572621 30.6185129 41.74226018 26.45703125 46.26171875 C24.10623867 48.88160046 21.88749541 51.56552219 19.6875 54.3125 C18.96844482 55.15538574 18.24938965 55.99827148 17.50854492 56.86669922 C15.71790326 59.00970032 14.26141658 61.18940374 12.83447266 63.5871582 C9.17060238 69.12771636 5.40052864 73.2329265 -1.27194214 74.73806763 C-10.20208164 75.69430099 -19.14217365 75.34740524 -28.0970459 74.96130371 C-31.81031661 74.81665208 -35.52494347 74.75385054 -39.24023438 74.68359375 C-46.49717123 74.53457193 -53.74743008 74.29651725 -61 74 C-59.28877436 70.36598423 -57.20066113 67.87362897 -54.4375 64.9375 C-51.0046517 61.24636541 -47.72061908 57.49589741 -44.5625 53.5625 C-41.34054709 49.56773299 -37.99319898 45.75470575 -34.5 42 C-30.27247357 37.45103578 -26.28382284 32.76042923 -22.38671875 27.92578125 C-19.60014696 24.50983646 -16.74678383 21.15683898 -13.875 17.8125 C-13.36356445 17.21606689 -12.85212891 16.61963379 -12.32519531 16.00512695 C-9.00324118 12.14080199 -5.63968235 8.31751031 -2.20703125 4.55078125 C-0.77985278 2.8948065 -0.77985278 2.8948065 0 0 Z " fill="#227C66" transform="translate(121,0)"/>
<path d="M0 0 C1.9216523 0.00022659 1.9216523 0.00022659 3.88212585 0.00045776 C5.28054967 0.01067105 6.67897191 0.02110304 8.07739258 0.03173828 C9.50799868 0.035469 10.93860734 0.0383157 12.36921692 0.04031372 C16.13234527 0.04794556 19.89531894 0.06759009 23.65838623 0.08972168 C27.4992056 0.11018984 31.34005 0.11931751 35.1809082 0.12939453 C42.71548388 0.15083649 50.24993217 0.18496691 57.78442383 0.22705078 C56.83227416 1.5074995 55.87861222 2.78682378 54.92431641 4.06567383 C54.39340897 4.77821823 53.86250153 5.49076263 53.31550598 6.22489929 C51.48617679 8.61705974 49.5222683 10.83475475 47.47192383 13.03955078 C44.32970512 16.47553284 41.32758047 19.97393117 38.40942383 23.60205078 C34.74645179 28.13928618 30.86689358 32.42374307 26.87084961 36.66479492 C23.68504086 40.09801814 20.97097273 43.69202896 18.28442383 47.53955078 C14.56504845 52.67868774 10.82227461 55.32828764 5.37426758 58.44580078 C-0.5550855 62.52390788 -3.60562134 68.7021637 -6.21557617 75.22705078 C-25.35557617 74.89705078 -44.49557617 74.56705078 -64.21557617 74.22705078 C-64.21557617 66.35482493 -64.21557617 66.35482493 -61.65307617 63.61376953 C-61.10772217 63.01105225 -60.56236816 62.40833496 -60.00048828 61.78735352 C-59.11695679 60.86031616 -59.11695679 60.86031616 -58.21557617 59.91455078 C-57.00712875 58.58771421 -55.80009372 57.25958988 -54.59448242 55.93017578 C-54.00812012 55.29273438 -53.42175781 54.65529297 -52.81762695 53.99853516 C-50.82650433 51.79683053 -48.97820256 49.50505256 -47.15307617 47.16455078 C-40.99067956 39.35197265 -34.40350045 31.88713123 -27.87182617 24.38330078 C-26.75720755 23.10208148 -25.64262398 21.82083168 -24.52807617 20.53955078 C-23.98530029 19.9164502 -23.44252441 19.29334961 -22.88330078 18.65136719 C-18.81029987 13.95854836 -14.87927199 9.17235738 -11.02026367 4.30126953 C-7.53027628 0.29005026 -5.11289366 -0.02008996 0 0 Z " fill="#046C57" transform="translate(64.215576171875,74.77294921875)"/>
<path d="M0 0 C0.99 0.495 0.99 0.495 2 1 C4.0374763 1.22858114 6.08040303 1.41024278 8.125 1.5625 C9.76855469 1.68818359 9.76855469 1.68818359 11.4453125 1.81640625 C12.70988281 1.90728516 12.70988281 1.90728516 14 2 C11.38611916 6.09727316 8.65303345 9.63179531 5.3125 13.1875 C1.92997824 16.84695336 -1.31634733 20.55289992 -4.4375 24.4375 C-8.09506264 28.97236161 -11.94617027 33.25536183 -15.91162109 37.51708984 C-19.71398807 41.62779276 -23.24270592 45.92275584 -26.75390625 50.28515625 C-29.86934959 54.05077907 -33.1864165 57.61638975 -36.49609375 61.2109375 C-39.89481329 64.9967187 -43.0924253 68.92135722 -46.28515625 72.8828125 C-48 75 -48 75 -49 76 C-50.9943173 76.09405142 -52.99199543 76.11743249 -54.98852539 76.11352539 C-56.26977798 76.11344986 -57.55103058 76.11337433 -58.87110901 76.11329651 C-60.27995848 76.10818909 -61.68880756 76.10297309 -63.09765625 76.09765625 C-64.53112234 76.09579202 -65.96458907 76.09436814 -67.39805603 76.09336853 C-71.17759957 76.08954372 -74.9571049 76.07971377 -78.7366333 76.06866455 C-82.59069298 76.05844963 -86.44475882 76.05387074 -90.29882812 76.04882812 C-97.86590287 76.03809146 -105.43294609 76.02101549 -113 76 C-111.38182825 72.59170063 -109.52234036 70.20469242 -106.9375 67.4375 C-103.70801662 63.91957792 -100.61539482 60.34817625 -97.625 56.625 C-93.94363311 52.07139288 -90.07225527 47.76417484 -86.08642578 43.48095703 C-82.31017387 39.39891439 -78.81131052 35.13206273 -75.328125 30.796875 C-72.73428287 27.68078278 -70.01446473 24.7139431 -67.25 21.75 C-63.47586693 17.70160851 -60.04893864 13.62597587 -57 9 C-51.46392088 12.94329658 -46.39356555 17.24825143 -41.39453125 21.8515625 C-38.99955144 24.00040246 -36.53040422 26.01343044 -34 28 C-25.06877164 24.02135535 -17.70437037 15.91350149 -10.59375 9.375 C-7.114725 6.18938675 -3.56688957 3.08653482 0 0 Z " fill="#1C7862" transform="translate(173,221)"/>
<path d="M0 0 C3.86101066 2.14500592 6.91138935 4.60324671 10.125 7.625 C14.83186012 11.98107786 19.67964227 16.07919025 24.6875 20.08984375 C26.57675756 21.65039602 28.31187111 23.22857528 30 25 C34.49007813 23.57691513 37.37089122 21.08985228 40.6875 17.875 C41.74011329 16.88580899 42.79483355 15.89885564 43.8515625 14.9140625 C44.3765332 14.42454102 44.90150391 13.93501953 45.44238281 13.43066406 C47.7606528 11.30134398 50.14043746 9.26009882 52.5625 7.25 C53.34753906 6.59515625 54.13257812 5.9403125 54.94140625 5.265625 C55.62074219 4.84796875 56.30007812 4.4303125 57 4 C57.99 4.33 58.98 4.66 60 5 C59.43384016 8.88350268 57.66155353 10.75770314 55 13.5625 C51.73878098 17.07576907 48.62354927 20.63493223 45.625 24.375 C41.94428153 28.92780507 38.07351352 33.23417411 34.08862305 37.5168457 C30.28935383 41.62414583 26.76377951 45.91592043 23.25390625 50.2734375 C20.08694091 54.10453249 16.73511724 57.75223991 13.37109375 61.41015625 C10.6235005 64.41123421 7.94321378 67.46547117 5.27734375 70.5390625 C4.54167701 71.38046727 3.79030613 72.20969387 3 73 C1.15881971 73.09381302 -0.68597641 73.11743954 -2.52954102 73.11352539 C-3.71068985 73.11344986 -4.89183868 73.11337433 -6.10877991 73.11329651 C-7.3941716 73.10813522 -8.67956329 73.10297394 -10.00390625 73.09765625 C-11.9661338 73.09553383 -11.9661338 73.09553383 -13.96800232 73.09336853 C-17.45162859 73.0895441 -20.93521339 73.07971446 -24.41882324 73.06866455 C-27.97126708 73.05844882 -31.52371759 73.05387056 -35.07617188 73.04882812 C-42.05079832 73.03809212 -49.02539717 73.0210166 -56 73 C-56.14306641 66.21533203 -56.14306641 66.21533203 -54.85546875 64.27734375 C-54.30503906 63.83519531 -53.75460938 63.39304687 -53.1875 62.9375 C-49.52226902 59.64989887 -46.60616057 56.08191619 -43.625 52.1875 C-39.672015 47.06123613 -35.56121931 42.18899417 -31.17578125 37.421875 C-28.88089933 34.86742834 -26.71808866 32.23527893 -24.5625 29.5625 C-20.67484161 24.75211641 -16.56280609 20.20214211 -12.3671875 15.66015625 C-9.50136744 12.43965549 -6.91227896 9.06469059 -4.375 5.58203125 C-3.92125 5.05996094 -3.4675 4.53789062 -3 4 C-2.34 4 -1.68 4 -1 4 C-0.67 2.68 -0.34 1.36 0 0 Z " fill="#056C57" transform="translate(56,224)"/>
<path d="M0 0 C1.56432787 1.69274284 3.05328572 3.45569852 4.5 5.25 C5.69109375 6.71179688 5.69109375 6.71179688 6.90625 8.203125 C8.58748034 10.44894762 9.88135899 12.4465803 11 15 C10.00033203 15.80050781 10.00033203 15.80050781 8.98046875 16.6171875 C4.02291059 20.62483591 -0.80938744 24.68165828 -5.5 29 C-9.05670244 32.27418423 -12.67161811 35.40642433 -16.4375 38.4375 C-21.59074036 42.59262351 -26.43833162 47.00372481 -31.2734375 51.51953125 C-33.77403718 53.7944321 -36.33529508 55.92153017 -39 58 C-41.84469179 56.6886807 -44.07827666 55.24017874 -46.42578125 53.171875 C-47.05806641 52.61886719 -47.69035156 52.06585938 -48.34179688 51.49609375 C-48.99212891 50.91988281 -49.64246094 50.34367187 -50.3125 49.75 C-52.23826921 48.05936508 -54.16439754 46.36929703 -56.09619141 44.68554688 C-57.38293481 43.54632188 -58.6506538 42.38529855 -59.89990234 41.20507812 C-60.50398926 40.64755859 -61.10807617 40.09003906 -61.73046875 39.515625 C-62.26438232 39.00805664 -62.7982959 38.50048828 -63.34838867 37.97753906 C-64.97583559 36.79379425 -64.97583559 36.79379425 -67.04003906 37.20605469 C-70.10568187 38.44789206 -72.22437314 40.7314693 -74.5625 43 C-80.16109644 48.29250496 -85.9733873 53.19531861 -92 58 C-95.67956291 56.43767979 -98.16515793 54.16415918 -101.0625 51.4375 C-105.72894679 47.11994643 -110.52537868 43.04693228 -115.47265625 39.05078125 C-118.70401615 36.42873496 -121.8554947 33.72523793 -125 31 C-123.42219077 27.28954753 -121.09296752 24.70093616 -118.375 21.75 C-117.14910156 20.41195312 -117.14910156 20.41195312 -115.8984375 19.046875 C-115.27195312 18.37140625 -114.64546875 17.6959375 -114 17 C-109.58781079 17.44546141 -107.03447273 20.44568227 -104 23.375 C-98.7992685 29.28305971 -98.7992685 29.28305971 -92.06640625 31.96875 C-89.17463059 30.61305933 -87.24619688 28.70329246 -84.9375 26.5 C-71.04508514 13.52254257 -71.04508514 13.52254257 -66 11 C-59.23627084 16.41621639 -52.77757267 21.95392696 -46.5078125 27.93359375 C-44.04761455 29.9607662 -42.00924818 31.01309603 -39 32 C-32.37823042 26.69746111 -26.01684793 21.23933482 -19.77734375 15.4921875 C-16.09797246 12.19058569 -12.27296412 9.09123204 -8.41015625 6.0078125 C-5.96121763 4.03951264 -5.96121763 4.03951264 -3.80859375 1.7421875 C-2 0 -2 0 0 0 Z " fill="#75D89C" transform="translate(180,175)"/>
<path d="M0 0 C17.23907977 0 17.23907977 0 25.43359375 0.21875 C26.76681419 0.25204407 26.76681419 0.25204407 28.12696838 0.28601074 C30.8971935 0.35558466 33.66734398 0.42773295 36.4375 0.5 C38.34439667 0.5483498 40.2512977 0.59652798 42.15820312 0.64453125 C46.77218794 0.76104744 51.38610797 0.87986819 56 1 C54.37879807 5.4060122 52.17368017 8.28739636 48.9375 11.625 C45.28237631 15.49572987 41.7749192 19.40860503 38.4375 23.5625 C35.45239926 27.27399293 32.36552442 30.82191936 29.125 34.3125 C24.82842301 38.97545177 20.92426525 43.84533777 17.05102539 48.85620117 C11.78150356 55.63800165 6.07210807 61.92789193 0 68 C0 45.56 0 23.12 0 0 Z " fill="#2B816A" transform="translate(0,74)"/>
<path d="M0 0 C8.86875 -0.020625 17.7375 -0.04125 26.875 -0.0625 C29.67597168 -0.071604 32.47694336 -0.08070801 35.36279297 -0.09008789 C37.57259066 -0.09300735 39.78238888 -0.09555584 41.9921875 -0.09765625 C43.1479126 -0.10277222 44.3036377 -0.10788818 45.49438477 -0.11315918 C47.1385437 -0.11334045 47.1385437 -0.11334045 48.81591797 -0.11352539 C49.77078094 -0.115746 50.72564392 -0.11796661 51.70944214 -0.12025452 C54 0 54 0 56 1 C55.67 2.32 55.34 3.64 55 5 C54.34 5 53.68 5 53 5 C52.75378906 5.56589844 52.50757813 6.13179687 52.25390625 6.71484375 C50.78463776 9.39248258 49.02247565 11.33043612 46.9375 13.5625 C43.68892508 17.10168226 40.57531784 20.69560168 37.5625 24.4375 C34.53282286 28.18652856 31.40395052 31.77972867 28.125 35.3125 C24.38072683 39.37506533 20.92935666 43.56524594 17.5625 47.9375 C13.84503102 52.75863417 9.99014388 57.38716385 5.875 61.875 C5.4013501 62.39312256 4.9277002 62.91124512 4.43969727 63.44506836 C3.31682131 64.65251758 2.16163532 65.82979172 1 67 C0.67 67 0.34 67 0 67 C0 44.89 0 22.78 0 0 Z " fill="#2B816A" transform="translate(0,223)"/>
<path d="M0 0 C0.33 0 0.66 0 1 0 C1.02578125 0.95519531 1.0515625 1.91039062 1.078125 2.89453125 C1.47376357 12.12387776 1.47376357 12.12387776 4.625 20.75 C5.703125 23.390625 5.703125 23.390625 6 26 C3.76675854 30.39120512 0.47175942 33.55255262 -3 37 C-4.7577697 38.93045382 -6.50796193 40.86783817 -8.25 42.8125 C-9.07757813 43.71226562 -9.90515625 44.61203125 -10.7578125 45.5390625 C-13.26581051 48.29174324 -15.65523691 51.10812552 -18 54 C-16.47790339 57.72913668 -14.25967803 59.80631179 -11.25 62.4375 C-10.36054687 63.21867187 -9.47109375 63.99984375 -8.5546875 64.8046875 C-5.72692811 67.2346581 -2.88899364 69.6431894 0 72 C-2.84127592 73.42063796 -5.24652286 73.1298031 -8.421875 73.1328125 C-9.39498627 73.13479141 -9.39498627 73.13479141 -10.38775635 73.1368103 C-12.50855219 73.13873274 -14.62921749 73.1323787 -16.75 73.125 C-17.46720215 73.12411377 -18.1844043 73.12322754 -18.92333984 73.12231445 C-31.30282063 73.10430894 -43.64085901 72.73316938 -56 72 C-56.3648841 67.889986 -56.49239585 65.70731453 -54.09375 62.26171875 C-53.2378125 61.41222656 -52.381875 60.56273437 -51.5 59.6875 C-48.18152079 56.28420156 -44.99430969 52.87357165 -42.0625 49.125 C-37.2005868 42.94773954 -32.1015971 36.97880241 -27 31 C-26.49887695 30.41105957 -25.99775391 29.82211914 -25.48144531 29.21533203 C-19.73398691 22.4612463 -13.94284731 15.76213204 -7.9765625 9.19921875 C-6.11024085 7.12265928 -4.29856178 5.01025937 -2.5 2.875 C-1.675 1.92625 -0.85 0.9775 0 0 Z " fill="#086D58" transform="translate(56,151)"/>
<path d="M0 0 C18.48 0.33 36.96 0.66 56 1 C54.89219987 5.43120054 53.0601096 7.40815439 50 10.5625 C46.32354541 14.45384721 42.79279333 18.3848897 39.4375 22.5625 C36.40642433 26.32838189 33.27418423 29.94329756 30 33.5 C25.83785755 38.02406788 21.9129148 42.69129376 18.05078125 47.47265625 C15.42873496 50.70401615 12.72523793 53.8554947 10 57 C7.13045594 55.95986676 6.12492655 55.21213942 4.55078125 52.5390625 C4.14214844 51.57742188 3.73351562 50.61578125 3.3125 49.625 C2.89613281 48.66851562 2.47976562 47.71203125 2.05078125 46.7265625 C0.62128785 43.01731939 -0.12611177 39.85132013 -0.11352539 35.87402344 C-0.11340454 35.06239746 -0.11328369 34.25077148 -0.11315918 33.41455078 C-0.10804321 32.57134277 -0.10292725 31.72813477 -0.09765625 30.859375 C-0.09664917 30.0770752 -0.09564209 29.29477539 -0.09460449 28.48876953 C-0.08938569 25.57583137 -0.07542443 22.66291416 -0.0625 19.75 C-0.041875 13.2325 -0.02125 6.715 0 0 Z " fill="#277F68" transform="translate(0,297)"/>
<path d="M0 0 C1.60488281 0.00483398 1.60488281 0.00483398 3.2421875 0.00976562 C4.35335937 0.01814453 5.46453125 0.02652344 6.609375 0.03515625 C8.29933594 0.04192383 8.29933594 0.04192383 10.0234375 0.04882812 C12.80213717 0.06060228 15.58072909 0.07704785 18.359375 0.09765625 C17.9581543 0.56308838 17.55693359 1.02852051 17.14355469 1.50805664 C16.34546387 2.43606079 16.34546387 2.43606079 15.53125 3.3828125 C15.0062793 3.99261963 14.48130859 4.60242676 13.94042969 5.23071289 C12.919487 6.43626396 11.91363312 7.65483361 10.92675781 8.88842773 C9.77782028 10.32459965 8.57287963 11.71560932 7.359375 13.09765625 C6.699375 13.09765625 6.039375 13.09765625 5.359375 13.09765625 C5.12347656 13.65324219 4.88757812 14.20882813 4.64453125 14.78125 C3.0465998 17.66141216 1.05437 19.76134701 -1.203125 22.16015625 C-4.61671141 25.83016229 -7.88017683 29.5576451 -11.015625 33.47265625 C-14.41257084 37.69328631 -17.98818658 41.6612247 -21.703125 45.59765625 C-26.20716097 50.37260102 -30.1534124 55.29676949 -33.82421875 60.7578125 C-35.83187536 63.34401962 -38.06347719 65.09578583 -40.640625 67.09765625 C-40.74069678 62.74183974 -40.81264948 58.38666032 -40.86035156 54.0300293 C-40.88026987 52.55302247 -40.90741507 51.07609241 -40.94238281 49.59936523 C-41.25082311 36.22303545 -39.03554649 25.84152171 -30.640625 15.09765625 C-30.16238281 14.48148438 -29.68414062 13.8653125 -29.19140625 13.23046875 C-22.17216216 5.27414674 -10.55367306 -0.05613656 0 0 Z " fill="#3F8D75" transform="translate(40.640625,-0.09765625)"/>
<path d="M0 0 C4.10997383 2.97023319 7.25331448 6.52556843 8.859375 11.34375 C9.43369635 17.66128485 9.05726525 22.71987405 5.859375 28.34375 C1.8508209 33.1106792 -1.86672188 35.9163475 -8.1328125 36.734375 C-13.66206955 37.01530723 -18.06457954 37.03606426 -22.703125 33.78125 C-27.13185723 29.73640365 -29.74881458 26.26180478 -30.55078125 20.2890625 C-30.83588901 13.95820808 -30.48397518 9.09569189 -26.63671875 3.9296875 C-19.48268483 -3.65396203 -9.02508634 -5.05404835 0 0 Z " fill="#74D89C" transform="translate(147.140625,141.65625)"/>
<path d="M0 0 C5.15626831 2.9319957 8.48901842 6.55996261 11.1875 11.8125 C12.18563195 18.33183029 11.76374647 24.4569318 8.39453125 30.1953125 C5.71156098 33.78997169 2.28244522 36.1056752 -1.8125 37.8125 C-8.28673551 38.71386612 -14.2121914 38.77749705 -19.875 35.25 C-24.57455881 31.53527521 -27.38180676 28.20295728 -28.1484375 22.16796875 C-28.35302396 16.41594182 -27.88569166 11.80643645 -24.8125 6.8125 C-17.41972234 -0.85750682 -10.41671034 -3.24454912 0 0 Z " fill="#74D89C" transform="translate(97.8125,140.1875)"/>
<path d="M0 0 C6.27 0 12.54 0 19 0 C14.3064174 6.97694711 8.76921158 12.01822929 2 17 C1.67 17 1.34 17 1 17 C0.67 11.39 0.34 5.78 0 0 Z " fill="#1D7760" transform="translate(168,149)"/>
</svg>
