<svg id="그룹_363" data-name="그룹 363" xmlns="http://www.w3.org/2000/svg" xmlns:xlink="http://www.w3.org/1999/xlink" width="27.25" height="18.889" viewBox="0 0 27.25 18.889">
  <defs>
    <clipPath id="clip-path">
      <rect id="사각형_217" data-name="사각형 217" width="27.25" height="18.889" fill="none"/>
    </clipPath>
  </defs>
  <path id="패스_584" data-name="패스 584" d="M17.032,20.3,11.766,15.74,6.5,20.3,2.429,16.78,0,19.586,6.5,25.21l5.268-4.56,5.266,4.56L27.25,16.365l-2.429-2.806Z" transform="translate(0 -6.321)" fill="#036b57"/>
  <g id="그룹_360" data-name="그룹 360" transform="translate(0 0)">
    <g id="그룹_359" data-name="그룹 359" clip-path="url(#clip-path)">
      <path id="패스_585" data-name="패스 585" d="M13.533,3.979A3.979,3.979,0,1,1,9.554,0a3.979,3.979,0,0,1,3.979,3.979" transform="translate(-2.599 0)" fill="#036b57"/>
      <path id="패스_586" data-name="패스 586" d="M31.008,3.979A3.979,3.979,0,1,1,27.029,0a3.979,3.979,0,0,1,3.979,3.979" transform="translate(-10.746 0)" fill="#036b57"/>
    </g>
  </g>
</svg>
