<svg xmlns="http://www.w3.org/2000/svg"><symbol id="list" viewBox="0 0 48 48"><circle id="타원_4" cx="24" cy="24" r="24" fill="#066b57"/><g id="그룹_370" fill="none" stroke="#73d89c" stroke-linecap="round"><g id="사각형_202" stroke-linejoin="round" stroke-width="5"><path stroke="none" d="M0 0h28v28H0z" transform="translate(10 10)"/><path d="M12.5 12.5h23v23h-23z"/></g><path id="선_16" stroke-width="2" d="M20 20h8"/><path id="선_17" stroke-width="2" d="M20 24h8"/><path id="선_18" stroke-width="2" d="M20 28h8"/></g></symbol><symbol id="search" viewBox="0 0 48 48"><path id="패스_67" fill="#066b57" d="M24 0A24 24 0 1 1 0 24 24 24 0 0 1 24 0z"/><g id="그룹_53" fill="none" stroke="#73d89c" stroke-width="5" transform="translate(-349.945 -96.456)"><g id="타원_6" transform="rotate(45 63.09 505.534)"><circle cx="10.5" cy="10.5" r="10.5" stroke="none"/><circle cx="10.5" cy="10.5" r="8"/></g><path id="선_5" stroke-linecap="round" d="M0 0v8" transform="rotate(45 34.3 508.459)"/></g></symbol><symbol id="add" viewBox="0 0 48 48"><g id="그룹_394"><circle id="타원_4" cx="24" cy="24" r="24" fill="#066b57"/><g id="그룹_366" fill="none" stroke="#73d89c" stroke-linecap="round" stroke-width="5"><path id="선_14" d="M0 0v20" transform="translate(24 14)"/><path id="선_15" d="M0 0v20" transform="rotate(90 5 29)"/></g></g></symbol></svg>