<svg id="그룹_362" data-name="그룹 362" xmlns="http://www.w3.org/2000/svg" xmlns:xlink="http://www.w3.org/1999/xlink" width="20.429" height="17.333" viewBox="0 0 20.429 17.333">
  <defs>
    <clipPath id="clip-path">
      <rect id="사각형_216" data-name="사각형 216" width="20.429" height="17.333" fill="#73d89c"/>
    </clipPath>
  </defs>
  <g id="그룹_357" data-name="그룹 357" transform="translate(0 0)" clip-path="url(#clip-path)">
    <path id="패스_581" data-name="패스 581" d="M10.9,3.979A3.979,3.979,0,1,1,6.923,0,3.979,3.979,0,0,1,10.9,3.979" transform="translate(-1.372 0)" fill="#73d89c"/>
    <path id="패스_582" data-name="패스 582" d="M28.377,3.979A3.979,3.979,0,1,1,24.4,0a3.979,3.979,0,0,1,3.979,3.979" transform="translate(-9.519 0)" fill="#73d89c"/>
    <path id="패스_583" data-name="패스 583" d="M16.975,25.732a8.355,8.355,0,0,0-13.519,0L0,23.222a12.5,12.5,0,0,1,10.215-5.205A12.5,12.5,0,0,1,20.43,23.222Z" transform="translate(0 -8.399)" fill="#73d89c"/>
  </g>
</svg>
