<svg xmlns="http://www.w3.org/2000/svg" xmlns:xlink="http://www.w3.org/1999/xlink" width="36" height="36" viewBox="0 0 36 36">
  <defs>
    <clipPath id="clip-path">
      <rect id="사각형_23" data-name="사각형 23" width="25.005" height="14.483" fill="#73d89c"/>
    </clipPath>
  </defs>
  <g id="그룹_381" data-name="그룹 381" transform="translate(-329 -331)">
    <circle id="타원_150" data-name="타원 150" cx="18" cy="18" r="18" transform="translate(329 331)" fill="#066b57"/>
    <g id="그룹_345" data-name="그룹 345" transform="translate(334.469 339.877)">
      <g id="그룹_26" data-name="그룹 26" transform="translate(0 0)" clip-path="url(#clip-path)">
        <path id="패스_41" data-name="패스 41" d="M25,57.726H0l2.217-2.558a4.135,4.135,0,0,1,5.836-.418,8.847,8.847,0,0,1,12.478-.9Z" transform="translate(0 -43.243)" fill="#73d89c"/>
        <path id="패스_42" data-name="패스 42" d="M58.035,4.248,55.544,6.739a1.461,1.461,0,0,1-2.066,0L50.937,4.2A2.461,2.461,0,0,1,51.025.637a2.506,2.506,0,0,1,3.439.132l.046.047.1-.1a2.46,2.46,0,0,1,3.56.087,2.505,2.505,0,0,1-.132,3.441" transform="translate(-42.008 0)" fill="#73d89c"/>
      </g>
    </g>
  </g>
</svg>
