<svg xmlns="http://www.w3.org/2000/svg" xmlns:xlink="http://www.w3.org/1999/xlink" width="25.427" height="34.653" viewBox="0 0 25.427 34.653">
  <defs>
    <clipPath id="clip-path">
      <rect id="사각형_20" data-name="사각형 20" width="25.427" height="34.653" fill="#fff9bd"/>
    </clipPath>
  </defs>
  <g id="그룹_67" data-name="그룹 67" transform="translate(0 0)">
    <g id="그룹_12" data-name="그룹 12" transform="translate(0 0)" clip-path="url(#clip-path)">
      <path id="패스_32" data-name="패스 32" d="M34.514,16.314V37.425a4.559,4.559,0,0,1-4.559,4.556H18.921a4.563,4.563,0,0,1-4.251-2.9H24.679A6.086,6.086,0,0,0,30.757,33V11.831a4.554,4.554,0,0,1,3.756,4.483" transform="translate(-9.087 -7.328)" fill="#fff9bd"/>
      <path id="패스_33" data-name="패스 33" d="M15.593,0H4.559A4.558,4.558,0,0,0,0,4.559V25.667a4.558,4.558,0,0,0,4.559,4.559H15.593a4.557,4.557,0,0,0,4.556-4.559V4.426A4.555,4.555,0,0,0,15.593,0m-4.1,10.085a2.118,2.118,0,1,1-2.12,2.12,2.117,2.117,0,0,1,2.12-2.12m-4.967,0a2.118,2.118,0,1,1-2.116,2.12,2.118,2.118,0,0,1,2.116-2.12m5.362,10.055-2.8-2.428-2.8,2.428-3.456-3,1.291-1.492L6.28,17.526l2.8-2.424,2.8,2.424,4.148-3.585,1.29,1.492Z" transform="translate(0 0)" fill="#fff9bd"/>
    </g>
  </g>
</svg>
