<svg xmlns="http://www.w3.org/2000/svg"><symbol id="plus" viewBox="0 0 48 48"><path id="패스_67" fill="#fff9bc" d="M24 0A24 24 0 1 1 0 24 24 24 0 0 1 24 0z"/><g id="그룹_53" fill="none" stroke="#066b57" stroke-width="5" transform="translate(-349.945 -96.456)"><g id="타원_6" transform="rotate(45 63.09 505.534)"><circle cx="10.5" cy="10.5" r="10.5" stroke="none"/><circle cx="10.5" cy="10.5" r="8"/></g><path id="선_5" stroke-linecap="round" d="M0 0v8" transform="rotate(45 34.3 508.459)"/></g></symbol><symbol id="lens" viewBox="0 0 48 48"><path id="패스_67" fill="#fff9bc" d="M24 0A24 24 0 1 1 0 24 24 24 0 0 1 24 0z"/><g id="그룹_53" fill="none" stroke="#066b57" stroke-width="5" transform="translate(-349.945 -96.456)"><g id="타원_6" transform="rotate(45 63.09 505.534)"><circle cx="10.5" cy="10.5" r="10.5" stroke="none"/><circle cx="10.5" cy="10.5" r="8"/></g><path id="선_5" stroke-linecap="round" d="M0 0v8" transform="rotate(45 34.3 508.459)"/></g></symbol><symbol id="list" viewBox="0 0 48 48"><path id="패스_578" fill="#fff9bc" d="M24 0A24 24 0 1 1 0 24 24 24 0 0 1 24 0z"/><g id="사각형_202" fill="none" stroke="#066b57" stroke-linecap="round" stroke-linejoin="round" stroke-width="5"><path stroke="none" d="M0 0h28v28H0z" transform="translate(10 10)"/><path d="M12.5 12.5h23v23h-23z"/></g><path id="선_16" fill="none" stroke="#066b57" stroke-linecap="round" stroke-width="2" d="M20 20h8"/><path id="선_17" fill="none" stroke="#066b57" stroke-linecap="round" stroke-width="2" d="M20 24h8"/><path id="선_18" fill="none" stroke="#066b57" stroke-linecap="round" stroke-width="2" d="M20 28h8"/></symbol></svg>