<svg xmlns="http://www.w3.org/2000/svg"><symbol id="add" viewBox="0 0 48 48"><circle cx="24" cy="24" r="24" fill="#fff9bd"/><path fill="none" stroke="#066b57" stroke-linecap="round" stroke-width="5" d="M24 14v20m10-10H14"/></symbol><symbol id="list" viewBox="0 0 48 48"><path fill="#fff9bc" d="M24 0A24 24 0 1 1 0 24 24 24 0 0 1 24 0z"/><g fill="none" stroke="#066b57" stroke-linecap="round"><g stroke-linejoin="round" stroke-width="5"><path stroke="none" d="M10 10h28v28H10z"/><path d="M12.5 12.5h23v23h-23z"/></g><path stroke-width="2" d="M20 20h8m-8 4h8m-8 4h8"/></g></symbol><symbol id="search" viewBox="0 0 48 48"><path fill="#fff9bc" d="M24 0A24 24 0 1 1 0 24 24 24 0 0 1 24 0z"/><g fill="none" stroke="#066b57" stroke-width="5"><g transform="rotate(45 4.55 34.885)"><circle cx="10.5" cy="10.5" r="10.5" stroke="none"/><circle cx="10.5" cy="10.5" r="8"/></g><path stroke-linecap="round" d="M19.636 28.214l-5.657 5.657"/></g></symbol></svg>