<svg xmlns="http://www.w3.org/2000/svg" xmlns:xlink="http://www.w3.org/1999/xlink" width="26.416" height="36" viewBox="0 0 26.416 36">
  <defs>
    <clipPath id="clip-path">
      <rect id="사각형_20" data-name="사각형 20" width="26.416" height="36" fill="#fff9bd"/>
    </clipPath>
  </defs>
  <g id="그룹_45" data-name="그룹 45" transform="translate(0 0)">
    <g id="그룹_12" data-name="그룹 12" transform="translate(0 0)" clip-path="url(#clip-path)">
      <path id="패스_32" data-name="패스 32" d="M35.285,16.489V38.42a4.737,4.737,0,0,1-4.737,4.733H19.086a4.74,4.74,0,0,1-4.416-3.017h10.4a6.323,6.323,0,0,0,6.314-6.318V11.831a4.731,4.731,0,0,1,3.9,4.658" transform="translate(-8.87 -7.153)" fill="#fff9bd"/>
      <path id="패스_33" data-name="패스 33" d="M16.2,0H4.737A4.735,4.735,0,0,0,0,4.737V26.665A4.735,4.735,0,0,0,4.737,31.4H16.2a4.734,4.734,0,0,0,4.733-4.737V4.6A4.732,4.732,0,0,0,16.2,0M11.937,10.478a2.2,2.2,0,1,1-2.2,2.2,2.2,2.2,0,0,1,2.2-2.2m-5.16,0a2.2,2.2,0,1,1-2.2,2.2,2.2,2.2,0,0,1,2.2-2.2m5.571,10.446L9.438,18.4,6.524,20.924l-3.59-3.112,1.341-1.55,2.25,1.945,2.914-2.519,2.91,2.519,4.31-3.725L18,16.033Z" transform="translate(0 0)" fill="#fff9bd"/>
    </g>
  </g>
</svg>
