<svg xmlns="http://www.w3.org/2000/svg"><symbol id="friends" viewBox="0 0 62.16 36"><defs><clipPath id="a"><path fill="#fff9bd" d="M0 0h62.16v36H0z"/></clipPath></defs><g fill="#fff9bd" clip-path="url(#a)"><path d="M62.155 36H0l5.51-6.359a10.279 10.279 0 0 1 14.507-1.04 21.992 21.992 0 0 1 31.017-2.231zM39.838 10.559l-6.193 6.193a3.632 3.632 0 0 1-5.136 0l-6.315-6.315a6.117 6.117 0 0 1 .219-8.854 6.23 6.23 0 0 1 8.55.329l.114.118.24-.24a6.115 6.115 0 0 1 8.85.215 6.227 6.227 0 0 1-.329 8.554"/></g></symbol><symbol id="visit" viewBox="0 0 62.16 36"><defs><clipPath id="a"><path fill="#fff9bd" d="M0 0h62.16v36H0z"/></clipPath></defs><g fill="#fff9bd" clip-path="url(#a)"><path d="M62.155 36H0l5.51-6.359a10.279 10.279 0 0 1 14.507-1.04 21.992 21.992 0 0 1 31.017-2.231zM39.838 10.559l-6.193 6.193a3.632 3.632 0 0 1-5.136 0l-6.315-6.315a6.117 6.117 0 0 1 .219-8.854 6.23 6.23 0 0 1 8.55.329l.114.118.24-.24a6.115 6.115 0 0 1 8.85.215 6.227 6.227 0 0 1-.329 8.554"/></g></symbol><symbol id="island" viewBox="0 0 47.23 36"><defs><clipPath id="a"><path fill="#fff9bd" d="M0 0h47.23v36H0z"/></clipPath></defs><path fill="#fff9bd" d="M32.203 0v17.474l10.12-8.767H32.27L42.323 0z"/><g clip-path="url(#a)"><path fill="#fff9bd" d="M47.232 36H0a30.775 30.775 0 0 1 18.36-10.271L32.193 4.4l-10.081 8.737v-8.76h10.1l.012-.02v.02l-2.941 21.51a30.751 30.751 0 0 1 14.331 6.978z"/></g></symbol><symbol id="game" viewBox="0 0 26.42 36"><defs><clipPath id="a"><path fill="#fff9bd" d="M0 0h26.42v36H0z"/></clipPath></defs><g fill="#fff9bd" clip-path="url(#a)"><path d="M26.415 9.336v21.931A4.737 4.737 0 0 1 21.678 36H10.216A4.74 4.74 0 0 1 5.8 32.983h10.4a6.323 6.323 0 0 0 6.314-6.318V4.678a4.731 4.731 0 0 1 3.9 4.658"/><path d="M16.2 0H4.737A4.735 4.735 0 0 0 0 4.737v21.928A4.735 4.735 0 0 0 4.737 31.4H16.2a4.734 4.734 0 0 0 4.733-4.737V4.6A4.732 4.732 0 0 0 16.2 0m-4.263 10.478a2.2 2.2 0 1 1-2.2 2.2 2.2 2.2 0 0 1 2.2-2.2m-5.16 0a2.2 2.2 0 1 1-2.2 2.2 2.2 2.2 0 0 1 2.2-2.2m5.571 10.446L9.438 18.4l-2.914 2.524-3.59-3.112 1.341-1.55 2.25 1.945 2.914-2.519 2.91 2.519 4.31-3.725L18 16.033z"/></g></symbol><symbol id="collection" viewBox="0 0 33.08 36"><defs><clipPath id="a"><path fill="#fff9bd" d="M0 0h33.08v36H0z"/></clipPath></defs><g clip-path="url(#a)"><path fill="#fff9bd" d="M28.295 2.914h-5.922v-.479A2.433 2.433 0 0 0 19.941 0h-6.8a2.436 2.436 0 0 0-2.435 2.435v.478H4.788A4.789 4.789 0 0 0 0 7.7v23.512A4.787 4.787 0 0 0 4.788 36h23.507a4.787 4.787 0 0 0 4.788-4.788V7.7a4.789 4.789 0 0 0-4.788-4.788M28.014 18.7h-2.708v1.522h2.708v10.71H17.3v-2.72h-1.518v2.72H5.064V20.218h2.708V18.7H5.064V7.982h11.477v11.477l11.473-9.935z"/></g></symbol></svg>