<svg xmlns="http://www.w3.org/2000/svg" xmlns:xlink="http://www.w3.org/1999/xlink" width="62.155" height="36" viewBox="0 0 62.155 36">
  <defs>
    <clipPath id="clip-path">
      <rect id="사각형_23" data-name="사각형 23" width="62.155" height="36" fill="#fff9bd"/>
    </clipPath>
  </defs>
  <g id="그룹_47" data-name="그룹 47" transform="translate(0 0)">
    <g id="그룹_26" data-name="그룹 26" transform="translate(0 0)" clip-path="url(#clip-path)">
      <path id="패스_41" data-name="패스 41" d="M62.155,66.688H0l5.51-6.359a10.279,10.279,0,0,1,14.507-1.04,21.992,21.992,0,0,1,31.017-2.231Z" transform="translate(0 -30.688)" fill="#fff9bd"/>
      <path id="패스_42" data-name="패스 42" d="M69.65,10.559l-6.193,6.193a3.632,3.632,0,0,1-5.136,0l-6.315-6.315a6.117,6.117,0,0,1,.219-8.854,6.23,6.23,0,0,1,8.55.329l.114.118.24-.24a6.115,6.115,0,0,1,8.85.215,6.227,6.227,0,0,1-.329,8.554" transform="translate(-29.812 0)" fill="#fff9bd"/>
    </g>
  </g>
</svg>
