<svg xmlns="http://www.w3.org/2000/svg" width="292" height="4" viewBox="0 0 292 4">
  <g id="그룹_62" data-name="그룹 62" transform="translate(-69 -297)">
    <circle id="타원_7" data-name="타원 7" cx="2" cy="2" r="2" transform="translate(117 297)" fill="#fff9bd"/>
    <circle id="타원_17" data-name="타원 17" cx="2" cy="2" r="2" transform="translate(93 297)" fill="#fff9bd"/>
    <circle id="타원_20" data-name="타원 20" cx="2" cy="2" r="2" transform="translate(69 297)" fill="#fff9bd"/>
    <circle id="타원_8" data-name="타원 8" cx="2" cy="2" r="2" transform="translate(141 297)" fill="#fff9bd"/>
    <circle id="타원_9" data-name="타원 9" cx="2" cy="2" r="2" transform="translate(165 297)" fill="#fff9bd"/>
    <circle id="타원_10" data-name="타원 10" cx="2" cy="2" r="2" transform="translate(189 297)" fill="#fff9bd"/>
    <circle id="타원_11" data-name="타원 11" cx="2" cy="2" r="2" transform="translate(213 297)" fill="#fff9bd"/>
    <circle id="타원_12" data-name="타원 12" cx="2" cy="2" r="2" transform="translate(237 297)" fill="#fff9bd"/>
    <circle id="타원_13" data-name="타원 13" cx="2" cy="2" r="2" transform="translate(261 297)" fill="#fff9bd"/>
    <circle id="타원_14" data-name="타원 14" cx="2" cy="2" r="2" transform="translate(285 297)" fill="#fff9bd"/>
    <circle id="타원_15" data-name="타원 15" cx="2" cy="2" r="2" transform="translate(309 297)" fill="#fff9bd"/>
    <circle id="타원_18" data-name="타원 18" cx="2" cy="2" r="2" transform="translate(333 297)" fill="#fff9bd"/>
    <circle id="타원_19" data-name="타원 19" cx="2" cy="2" r="2" transform="translate(357 297)" fill="#fff9bd"/>
  </g>
</svg>
